<?xml version="1.0" encoding="utf-8"?>
<!-- Generator: Adobe Illustrator 25.0.0, SVG Export Plug-In . SVG Version: 6.00 Build 0)  -->
<svg version="1.1" id="Layer_1" xmlns="http://www.w3.org/2000/svg" xmlns:xlink="http://www.w3.org/1999/xlink" x="0px" y="0px"
	 viewBox="0 0 1152 566.5" style="enable-background:new 0 0 1152 566.5;" xml:space="preserve">
<style type="text/css">
	.st0{clip-path:url(#SVGID_2_);}
	.st1{fill-rule:evenodd;clip-rule:evenodd;fill-opacity:0;stroke:#FFFFFF;stroke-width:0.25;stroke-miterlimit:10;}
	.st2{fill:#595959;stroke:#FFFFFF;stroke-width:0.25;stroke-miterlimit:10;}
	.st3{fill-rule:evenodd;clip-rule:evenodd;fill:#EFEFEF;}
	.st4{fill:none;stroke:#9FC5E8;stroke-linejoin:round;stroke-miterlimit:10;}
	.st5{fill-rule:evenodd;clip-rule:evenodd;fill:#CFE2F3;}
	.st6{fill-rule:evenodd;clip-rule:evenodd;fill:#595959;stroke:#595959;stroke-miterlimit:10;}
	.st7{fill-rule:evenodd;clip-rule:evenodd;fill-opacity:0;}
	.st8{fill:none;stroke:#595959;stroke-linejoin:round;stroke-miterlimit:10;}
	.st9{fill-rule:evenodd;clip-rule:evenodd;fill:#F3F3F3;}
	.st10{fill:#999999;stroke:#FFFFFF;stroke-width:0.25;stroke-miterlimit:10;}
	.st11{stroke:#FFFFFF;stroke-width:0.25;stroke-miterlimit:10;}
</style>
<g>
	<defs>
		<polyline id="SVGID_1_" points="1152,0 1152,768 0,768 0,0 		"/>
	</defs>
	<clipPath id="SVGID_2_">
		<use xlink:href="#SVGID_1_"  style="overflow:visible;"/>
	</clipPath>
	<g class="st0">
		<path class="st1" d="M583.3,124.5v21.9"/>
		<path class="st1" d="M638.9,124.5v21.9"/>
		<path class="st1" d="M666.7,124.5v21.9"/>
		<path class="st1" d="M694.5,124.5v21.9"/>
		<path class="st1" d="M722.3,124.5v21.9"/>
		<path class="st1" d="M540.6,306.8c6.9,0,10.4-5.7,13.9-11.4c3.5-5.7,6.9-11.4,13.9-11.4"/>
		<path class="st2" d="M540.6,307.3v-1c6.7,0,10-5.4,13.5-11.2c3.5-5.7,7.1-11.6,14.3-11.6v1c-6.7,0-10,5.4-13.5,11.2
			C551.4,301.4,547.8,307.3,540.6,307.3z"/>
		<path class="st1" d="M540.6,306.8c10.7,0,16,5.6,21.3,11.3c5.3,5.6,10.7,11.3,21.3,11.3"/>
		<path class="st2" d="M583.2,329.8c-10.9,0-16.4-5.8-21.7-11.4c-5.4-5.7-10.5-11.1-21-11.1v-1c10.9,0,16.4,5.8,21.7,11.4
			c5.4,5.7,10.5,11.1,21,11.1V329.8z"/>
		<path class="st1" d="M623.9,284c5.7,0,8.6,5.6,11.5,11.2c2.9,5.6,5.7,11.2,11.5,11.2"/>
		<path class="st2" d="M646.9,306.8c-6,0-9-5.8-11.9-11.4c-2.9-5.6-5.6-10.9-11-10.9v-1c6,0,9,5.8,11.9,11.5
			c2.9,5.6,5.6,10.9,11,10.9V306.8z"/>
		<path class="st1" d="M611,329.3c9,0,13.5-5.7,17.9-11.5c4.5-5.7,9-11.5,18-11.5"/>
		<path class="st2" d="M611,329.8v-1c8.7,0,13-5.5,17.5-11.3c4.5-5.8,9.1-11.7,18.4-11.7v1c-8.7,0-13,5.5-17.6,11.3
			C624.9,323.9,620.2,329.8,611,329.8z"/>
		<path class="st1" d="M697.6,283.4c-5.7,0-8.6,5.7-11.5,11.4c-2.9,5.7-5.7,11.4-11.5,11.4"/>
		<path class="st2" d="M674.7,306.8v-1c5.4,0,8.1-5.4,11-11.2c2.9-5.8,5.9-11.7,11.9-11.7v1c-5.4,0-8.1,5.4-11,11.2
			C683.7,300.9,680.7,306.8,674.7,306.8z"/>
		<path class="st1" d="M697.6,329.3c-5.7,0-8.6-5.7-11.5-11.4c-2.9-5.7-5.7-11.4-11.5-11.4"/>
		<path class="st2" d="M697.6,329.8c-6,0-9-6-11.9-11.7c-2.9-5.7-5.6-11.2-11-11.2v-1c6,0,9,6,11.9,11.7c2.9,5.7,5.6,11.2,11,11.2
			V329.8z"/>
		<path class="st1" d="M748.4,306.4c-5.7,0-8.6-5.7-11.5-11.4c-2.9-5.7-5.7-11.4-11.5-11.4"/>
		<path class="st2" d="M748.4,306.9c-6,0-9-6-11.9-11.7c-2.9-5.7-5.6-11.2-11-11.2v-1c6,0,9,6,11.9,11.7c2.9,5.7,5.6,11.2,11,11.2
			V306.9z"/>
		<path class="st1" d="M748.4,306.4c-5.7,0-8.6,5.7-11.5,11.4c-2.9,5.7-5.7,11.4-11.5,11.4"/>
		<path class="st2" d="M725.4,329.7v-1c5.4,0,8.1-5.4,11-11.2c2.9-5.8,5.9-11.7,11.9-11.7v1c-5.4,0-8.1,5.4-11,11.2
			C734.4,323.8,731.5,329.7,725.4,329.7z"/>
		<path class="st1" d="M485,478c6.9,0,10.4,0,13.9,0s6.9,0,13.9,0"/>
		<path class="st2" d="M512.8,478.6c-6.9,0-10.4,0-13.9,0c-3.5,0-6.9,0-13.9,0v-1c6.9,0,10.4,0,13.9,0c3.5,0,6.9,0,13.9,0V478.6z"/>
		<path class="st1" d="M799.1,454.7c-5.7,0-8.6,5.7-11.5,11.4c-2.9,5.7-5.7,11.4-11.5,11.4"/>
		<path class="st2" d="M776.1,478.1v-1c5.4,0,8.2-5.4,11-11.2c2.9-5.8,5.9-11.7,11.9-11.7v1c-5.4,0-8.1,5.4-11,11.2
			C785.2,472.1,782.2,478.1,776.1,478.1z"/>
		<path class="st1" d="M583.3,74.8v21.9"/>
		<path class="st1" d="M799.1,500.6c-5.7,0-8.6-5.7-11.5-11.5c-2.9-5.7-5.7-11.5-11.5-11.5"/>
		<path class="st2" d="M799.1,501.1c-6,0-9-6-11.9-11.8c-2.9-5.8-5.6-11.2-11-11.2v-1c6.1,0,9,6,11.9,11.8c2.9,5.8,5.6,11.2,11,11.2
			V501.1z"/>
		<path class="st1" d="M611.1,74.8v21.9"/>
		<path class="st1" d="M638.9,74.8v21.9"/>
		<path class="st1" d="M666.7,74.8v21.9"/>
		<path class="st1" d="M722.3,74.8v21.9"/>
		<path class="st1" d="M694.5,74.8v21.9"/>
		<path class="st1" d="M540.6,478c6.9,0,10.4-5.7,13.9-11.4c3.5-5.7,6.9-11.4,13.9-11.4"/>
		<path class="st2" d="M540.6,478.5v-1c6.7,0,10-5.4,13.5-11.2c3.5-5.7,7.1-11.6,14.3-11.6v1c-6.7,0-10,5.4-13.5,11.2
			C551.4,472.6,547.8,478.5,540.6,478.5z"/>
		<path class="st1" d="M540.6,478c10.3,0,15.5,5.6,20.7,11.3c5.2,5.6,10.3,11.3,20.7,11.3"/>
		<path class="st2" d="M582,501.1c-10.6,0-15.9-5.8-21.1-11.4c-5.2-5.7-10.2-11.1-20.3-11.1v-1c10.6,0,15.9,5.8,21,11.4
			c5.2,5.7,10.2,11.1,20.3,11.1V501.1z"/>
		<path class="st1" d="M623.9,455.2c5.7,0,8.6,5.6,11.5,11.2c2.9,5.6,5.7,11.2,11.5,11.2"/>
		<path class="st2" d="M646.9,478.1c-6,0-9-5.8-11.9-11.5c-2.9-5.6-5.6-10.9-11-10.9v-1c6,0,9,5.8,11.9,11.5
			c2.9,5.6,5.6,10.9,11,10.9V478.1z"/>
		<path class="st1" d="M609.7,500.6c9.3,0,13.9-5.7,18.6-11.5c4.6-5.7,9.3-11.5,18.6-11.5"/>
		<path class="st2" d="M609.7,501.1v-1c9.1,0,13.5-5.5,18.2-11.3c4.6-5.7,9.5-11.7,19-11.7v1c-9.1,0-13.5,5.5-18.2,11.3
			C624.1,495.2,619.3,501.1,609.7,501.1z"/>
		<path class="st1" d="M697.6,454.7c-5.7,0-8.6,5.7-11.5,11.4c-2.9,5.7-5.7,11.4-11.5,11.4"/>
		<path class="st2" d="M674.7,478.1v-1c5.4,0,8.1-5.4,11-11.2c2.9-5.8,5.9-11.7,11.9-11.7v1c-5.4,0-8.1,5.4-11,11.2
			C683.7,472.1,680.7,478.1,674.7,478.1z"/>
		<path class="st1" d="M697.6,500.5c-5.7,0-8.6-5.7-11.5-11.4c-2.9-5.7-5.7-11.4-11.5-11.4"/>
		<path class="st2" d="M697.6,501c-6,0-9-6-11.9-11.7c-2.9-5.8-5.6-11.2-11-11.2v-1c6,0,9,6,11.9,11.7c2.9,5.8,5.6,11.2,11,11.2V501
			z"/>
		<path class="st1" d="M748.4,477.6c-5.7,0-8.6-5.7-11.5-11.4c-2.9-5.7-5.7-11.4-11.5-11.4"/>
		<path class="st2" d="M748.4,478.1c-6,0-9-6-11.9-11.7c-2.9-5.8-5.6-11.2-11-11.2v-1c6,0,9,6,11.9,11.7c2.9,5.8,5.6,11.2,11,11.2
			V478.1z"/>
		<path class="st1" d="M748.4,477.6c-5.7,0-8.6,5.7-11.5,11.4c-2.9,5.7-5.7,11.4-11.5,11.4"/>
		<path class="st2" d="M725.4,501v-1c5.4,0,8.1-5.4,11-11.2c2.9-5.8,5.9-11.7,11.9-11.7v1c-5.4,0-8.1,5.4-11,11.2
			C734.4,495,731.5,501,725.4,501z"/>
		<path class="st1" d="M597.2,160.3H625"/>
		<rect x="597.2" y="159.8" class="st2" width="27.8" height="1"/>
		<path class="st3" d="M312.4,47h257v27.8h-257V47z"/>
		<path class="st4" d="M312.4,47h257v27.8h-257V47z"/>
		<path class="st5" d="M569.4,47h27.8v27.8h-27.8V47z"/>
		<path class="st4" d="M569.4,47h27.8v27.8h-27.8V47z"/>
		<path class="st5" d="M597.2,47H625v27.8h-27.8V47z"/>
		<path class="st4" d="M597.2,47H625v27.8h-27.8V47z"/>
		<path class="st5" d="M625,47h27.8v27.8H625V47z"/>
		<path class="st4" d="M625,47h27.8v27.8H625V47z"/>
		<path class="st5" d="M652.8,47h27.8v27.8h-27.8V47z"/>
		<path class="st4" d="M652.8,47h27.8v27.8h-27.8V47z"/>
		<path class="st5" d="M680.6,47h27.8v27.8h-27.8V47z"/>
		<path class="st4" d="M680.6,47h27.8v27.8h-27.8V47z"/>
		<path class="st5" d="M736.2,124.5h-27.8V96.7h27.8V124.5z"/>
		<path class="st4" d="M736.2,124.5h-27.8V96.7h27.8V124.5z"/>
		<path class="st5" d="M708.4,124.5h-27.8V96.7h27.8V124.5z"/>
		<path class="st4" d="M708.4,124.5h-27.8V96.7h27.8V124.5z"/>
		<path class="st5" d="M680.6,124.5h-27.8V96.7h27.8V124.5z"/>
		<path class="st4" d="M680.6,124.5h-27.8V96.7h27.8V124.5z"/>
		<path class="st5" d="M652.8,124.5H625V96.7h27.8V124.5z"/>
		<path class="st4" d="M652.8,124.5H625V96.7h27.8V124.5z"/>
		<path class="st5" d="M625,124.5h-27.8V96.7H625V124.5z"/>
		<path class="st4" d="M625,124.5h-27.8V96.7H625V124.5z"/>
		<path class="st1" d="M648.4,197v56.2"/>
		<rect x="647.9" y="197" class="st2" width="1" height="50.2"/>
		<path class="st6" d="M646.7,247.2l1.7,4.5l1.7-4.5H646.7z"/>
		<path class="st7" d="M648.4,367.5v56.2"/>
		<path class="st8" d="M648.4,367.5v50.2"/>
		<path class="st6" d="M646.7,417.8l1.7,4.5l1.7-4.5H646.7z"/>
		<path class="st3" d="M923.8,124.5H736.2V96.7h187.6V124.5z"/>
		<path class="st4" d="M923.8,124.5H736.2V96.7h187.6V124.5z"/>
		<path class="st5" d="M512.8,292.9h27.8v27.8h-27.8V292.9z"/>
		<path class="st4" d="M512.8,292.9h27.8v27.8h-27.8V292.9z"/>
		<path class="st5" d="M568.4,270.1h27.8v27.8h-27.8V270.1z"/>
		<path class="st4" d="M568.4,270.1h27.8v27.8h-27.8V270.1z"/>
		<path class="st5" d="M646.9,292.5h27.8v27.8h-27.8V292.5z"/>
		<path class="st4" d="M646.9,292.5h27.8v27.8h-27.8V292.5z"/>
		<path class="st5" d="M697.6,269.6h27.8v27.8h-27.8V269.6z"/>
		<path class="st4" d="M697.6,269.6h27.8v27.8h-27.8V269.6z"/>
		<path class="st5" d="M748.4,292.5h27.8v27.8h-27.8V292.5z"/>
		<path class="st4" d="M748.4,292.5h27.8v27.8h-27.8V292.5z"/>
		<path class="st5" d="M583.2,315.5H611v27.8h-27.8V315.5z"/>
		<path class="st4" d="M583.2,315.5H611v27.8h-27.8V315.5z"/>
		<path class="st5" d="M697.6,315.4h27.8v27.8h-27.8V315.4z"/>
		<path class="st4" d="M697.6,315.4h27.8v27.8h-27.8V315.4z"/>
		<path class="st5" d="M596.2,270.1h27.8v27.8h-27.8V270.1z"/>
		<path class="st4" d="M596.2,270.1h27.8v27.8h-27.8V270.1z"/>
		<path class="st9" d="M318.1,464.2H485v27.8H318.1V464.2z"/>
		<path class="st4" d="M318.1,464.2H485v27.8H318.1V464.2z"/>
		<path class="st3" d="M1021.6,468.6H799.1v-27.8h222.5V468.6z"/>
		<path class="st4" d="M1021.6,468.6H799.1v-27.8h222.5V468.6z"/>
		<path class="st5" d="M708.4,47h27.8v27.8h-27.8V47z"/>
		<path class="st4" d="M708.4,47h27.8v27.8h-27.8V47z"/>
		<path class="st5" d="M597.1,124.5h-27.8V96.7h27.8V124.5z"/>
		<path class="st4" d="M597.1,124.5h-27.8V96.7h27.8V124.5z"/>
		<path class="st10" d="M583.8,85.8h-1v-4h1V85.8z M583.8,96.7h-1v-0.9h1V96.7z M583.8,92.8h-1v-4h1V92.8z M583.8,78.8h-1v-4h1V78.8
			z"/>
		<path class="st5" d="M736.2,174.2h-27.8v-27.8h27.8V174.2z"/>
		<path class="st4" d="M736.2,174.2h-27.8v-27.8h27.8V174.2z"/>
		<path class="st5" d="M708.4,174.2h-27.8v-27.8h27.8V174.2z"/>
		<path class="st4" d="M708.4,174.2h-27.8v-27.8h27.8V174.2z"/>
		<path class="st5" d="M680.6,174.2h-27.8v-27.8h27.8V174.2z"/>
		<path class="st4" d="M680.6,174.2h-27.8v-27.8h27.8V174.2z"/>
		<path class="st5" d="M652.8,174.2H625v-27.8h27.8V174.2z"/>
		<path class="st4" d="M652.8,174.2H625v-27.8h27.8V174.2z"/>
		<path class="st5" d="M597.2,174.2h-27.8v-27.8h27.8V174.2z"/>
		<path class="st4" d="M597.2,174.2h-27.8v-27.8h27.8V174.2z"/>
		<path class="st3" d="M923.8,174.2H736.2v-27.8h187.6V174.2z"/>
		<path class="st4" d="M923.8,174.2H736.2v-27.8h187.6V174.2z"/>
		<path class="st3" d="M1021.6,514.5H799.1v-27.8h222.5V514.5z"/>
		<path class="st4" d="M1021.6,514.5H799.1v-27.8h222.5V514.5z"/>
		<path class="st10" d="M611.6,85.8h-1v-4h1V85.8z M611.6,96.7h-1v-0.9h1V96.7z M611.6,92.8h-1v-4h1V92.8z M611.6,78.8h-1v-4h1V78.8
			z"/>
		<path class="st10" d="M639.4,85.8h-1v-4h1V85.8z M639.4,96.7h-1v-0.9h1V96.7z M639.4,92.8h-1v-4h1V92.8z M639.4,78.8h-1v-4h1V78.8
			z"/>
		<path class="st10" d="M667.2,85.8h-1v-4h1V85.8z M667.2,96.7h-1v-0.9h1V96.7z M667.2,92.8h-1v-4h1V92.8z M667.2,78.8h-1v-4h1V78.8
			z"/>
		<path class="st10" d="M722.8,85.8h-1v-4h1V85.8z M722.8,96.7h-1v-0.9h1V96.7z M722.8,92.8h-1v-4h1V92.8z M722.8,78.8h-1v-4h1V78.8
			z"/>
		<path class="st10" d="M583.8,135.5h-1v-4h1V135.5z M583.8,142.5h-1v-4h1V142.5z M583.8,146.4h-1v-0.9h1V146.4z M583.8,128.5h-1v-4
			h1V128.5z"/>
		<path class="st10" d="M639.4,135.5h-1v-4h1V135.5z M639.4,142.5h-1v-4h1V142.5z M639.4,146.4h-1v-0.9h1V146.4z M639.4,128.5h-1v-4
			h1V128.5z"/>
		<path class="st10" d="M667.2,135.5h-1v-4h1V135.5z M667.2,142.5h-1v-4h1V142.5z M667.2,146.4h-1v-0.9h1V146.4z M667.2,128.5h-1v-4
			h1V128.5z"/>
		<path class="st10" d="M695,135.5h-1v-4h1V135.5z M695,142.5h-1v-4h1V142.5z M695,146.4h-1v-0.9h1V146.4z M695,128.5h-1v-4h1V128.5
			z"/>
		<path class="st10" d="M722.8,135.5h-1v-4h1V135.5z M722.8,142.5h-1v-4h1V142.5z M722.8,146.4h-1v-0.9h1V146.4z M722.8,128.5h-1v-4
			h1V128.5z"/>
		<path class="st10" d="M695,85.8h-1v-4h1V85.8z M695,96.7h-1v-0.9h1V96.7z M695,92.8h-1v-4h1V92.8z M695,78.8h-1v-4h1V78.8z"/>
		<path class="st5" d="M512.8,464.2h27.8v27.8h-27.8V464.2z"/>
		<path class="st4" d="M512.8,464.2h27.8v27.8h-27.8V464.2z"/>
		<path class="st5" d="M568.4,441.3h27.8v27.8h-27.8V441.3z"/>
		<path class="st4" d="M568.4,441.3h27.8v27.8h-27.8V441.3z"/>
		<path class="st5" d="M646.9,463.7h27.8v27.8h-27.8V463.7z"/>
		<path class="st4" d="M646.9,463.7h27.8v27.8h-27.8V463.7z"/>
		<path class="st5" d="M697.6,440.8h27.8v27.8h-27.8V440.8z"/>
		<path class="st4" d="M697.6,440.8h27.8v27.8h-27.8V440.8z"/>
		<path class="st5" d="M748.4,463.7h27.8v27.8h-27.8V463.7z"/>
		<path class="st4" d="M748.4,463.7h27.8v27.8h-27.8V463.7z"/>
		<path class="st5" d="M581.9,486.7h27.8v27.8h-27.8V486.7z"/>
		<path class="st4" d="M581.9,486.7h27.8v27.8h-27.8V486.7z"/>
		<path class="st5" d="M697.6,486.6h27.8v27.8h-27.8V486.6z"/>
		<path class="st4" d="M697.6,486.6h27.8v27.8h-27.8V486.6z"/>
		<path class="st5" d="M596.2,441.3h27.8v27.8h-27.8V441.3z"/>
		<path class="st4" d="M596.2,441.3h27.8v27.8h-27.8V441.3z"/>
		<path class="st11" d="M87.9,266.4h-2.9l-1.2-3h-5.3l-1.1,3h-2.9l5.2-13.4h2.8L87.9,266.4z M82.9,261.1l-1.8-5l-1.8,5H82.9z
			 M89.3,266.4v-13.4h2.6v13.4H89.3z M94.5,255.4v-2.4H97v2.4H94.5z M94.5,266.4v-9.7H97v9.7H94.5z M99.4,267.1l2.9,0.4
			c0,0.3,0.2,0.6,0.3,0.7c0.2,0.2,0.6,0.3,1.2,0.3c0.7,0,1.2-0.1,1.5-0.3c0.2-0.1,0.4-0.4,0.5-0.7c0.1-0.2,0.1-0.6,0.1-1.2v-1.4
			c-0.8,1-1.7,1.6-2.9,1.6c-1.3,0-2.3-0.6-3.1-1.7c-0.6-0.9-0.9-1.9-0.9-3.2c0-1.6,0.4-2.9,1.2-3.7s1.8-1.3,2.9-1.3
			c1.2,0,2.2,0.5,3,1.6v-1.4h2.4v8.7c0,1.1-0.1,2-0.3,2.6s-0.5,1-0.8,1.3c-0.3,0.3-0.8,0.6-1.4,0.8c-0.6,0.2-1.3,0.3-2.2,0.3
			c-1.6,0-2.8-0.3-3.5-0.8s-1-1.3-1-2.1C99.4,267.3,99.4,267.2,99.4,267.1z M101.7,261.4c0,1,0.2,1.8,0.6,2.2
			c0.4,0.5,0.9,0.7,1.5,0.7c0.6,0,1.2-0.2,1.6-0.7c0.4-0.5,0.7-1.2,0.7-2.2c0-1-0.2-1.8-0.6-2.2c-0.4-0.5-0.9-0.7-1.6-0.7
			c-0.6,0-1.1,0.2-1.5,0.7C101.9,259.7,101.7,260.4,101.7,261.4z M119.9,266.4h-2.6v-4.9c0-1-0.1-1.7-0.2-2
			c-0.1-0.3-0.3-0.6-0.5-0.7c-0.2-0.2-0.5-0.3-0.9-0.3c-0.4,0-0.8,0.1-1.2,0.4c-0.4,0.2-0.6,0.6-0.7,1c-0.1,0.4-0.2,1.1-0.2,2.2v4.4
			H111v-9.7h2.4v1.4c0.8-1.1,1.9-1.6,3.2-1.6c0.6,0,1.1,0.1,1.5,0.3c0.5,0.2,0.8,0.5,1.1,0.8c0.2,0.3,0.4,0.7,0.5,1.1
			c0.1,0.4,0.1,1,0.1,1.7V266.4z M75.9,288.4v-13.4h9.7v1.6h-7.9v4.1h7.4v1.6h-7.4v4.5h8.2v1.6H75.9z M94.5,287.2
			c-0.6,0.5-1.2,0.9-1.8,1.1c-0.6,0.2-1.2,0.3-1.8,0.3c-1.1,0-1.9-0.3-2.5-0.8c-0.6-0.5-0.9-1.2-0.9-2c0-0.5,0.1-0.9,0.3-1.3
			c0.2-0.4,0.5-0.7,0.8-0.9c0.4-0.2,0.8-0.4,1.2-0.5c0.3-0.1,0.8-0.2,1.5-0.2c1.3-0.2,2.3-0.3,2.9-0.6c0-0.2,0-0.4,0-0.4
			c0-0.7-0.2-1.1-0.5-1.4c-0.4-0.4-1-0.5-1.9-0.5c-0.8,0-1.3,0.1-1.7,0.4c-0.4,0.3-0.6,0.7-0.8,1.4l-1.6-0.2
			c0.1-0.7,0.4-1.2,0.7-1.6c0.3-0.4,0.8-0.8,1.5-1c0.6-0.2,1.4-0.3,2.2-0.3c0.8,0,1.5,0.1,2,0.3c0.5,0.2,0.9,0.4,1.1,0.7
			c0.2,0.3,0.4,0.7,0.5,1.1c0.1,0.3,0.1,0.8,0.1,1.5v2.2c0,1.5,0,2.5,0.1,2.9c0.1,0.4,0.2,0.8,0.4,1.2h-1.7
			C94.6,288.1,94.5,287.7,94.5,287.2z M94.3,283.6c-0.6,0.2-1.5,0.5-2.7,0.6c-0.7,0.1-1.2,0.2-1.4,0.3s-0.5,0.3-0.7,0.5
			c-0.1,0.2-0.2,0.5-0.2,0.8c0,0.4,0.2,0.8,0.5,1.1c0.3,0.3,0.8,0.4,1.5,0.4c0.6,0,1.2-0.1,1.7-0.4c0.5-0.3,0.9-0.7,1.1-1.1
			c0.2-0.4,0.3-0.9,0.3-1.6V283.6z M104.8,284.9l1.6,0.2c-0.2,1.1-0.6,2-1.4,2.6c-0.7,0.6-1.6,0.9-2.7,0.9c-1.3,0-2.4-0.4-3.2-1.3
			s-1.2-2.1-1.2-3.7c0-1.1,0.2-2,0.5-2.8s0.9-1.4,1.6-1.8c0.7-0.4,1.5-0.6,2.3-0.6c1.1,0,1.9,0.3,2.6,0.8s1.1,1.3,1.3,2.3l-1.6,0.2
			c-0.2-0.6-0.4-1.1-0.8-1.5c-0.4-0.3-0.8-0.5-1.4-0.5c-0.8,0-1.5,0.3-2,0.9s-0.8,1.5-0.8,2.8c0,1.3,0.2,2.2,0.8,2.8
			c0.5,0.6,1.2,0.9,2,0.9c0.6,0,1.2-0.2,1.6-0.6C104.5,286.3,104.7,285.7,104.8,284.9z M107.9,288.4v-13.4h1.6v4.8
			c0.8-0.9,1.7-1.3,2.9-1.3c0.7,0,1.3,0.1,1.9,0.4c0.5,0.3,0.9,0.7,1.1,1.2s0.3,1.2,0.3,2.2v6.1h-1.6v-6.1c0-0.8-0.2-1.4-0.5-1.8
			s-0.9-0.6-1.5-0.6c-0.5,0-0.9,0.1-1.4,0.4c-0.4,0.2-0.7,0.6-0.9,1c-0.2,0.4-0.3,1-0.3,1.8v5.3H107.9z M122.8,285.5l1.6-0.2
			c0.1,0.6,0.3,1.1,0.8,1.5c0.4,0.3,1,0.5,1.8,0.5s1.3-0.2,1.7-0.5c0.4-0.3,0.5-0.7,0.5-1.1c0-0.4-0.2-0.7-0.5-0.9
			c-0.2-0.1-0.8-0.3-1.7-0.5c-1.2-0.3-2-0.6-2.5-0.8c-0.5-0.2-0.8-0.5-1-0.9c-0.2-0.4-0.4-0.8-0.4-1.3c0-0.4,0.1-0.8,0.3-1.2
			c0.2-0.4,0.5-0.7,0.8-0.9c0.2-0.2,0.6-0.3,1-0.5c0.4-0.1,0.9-0.2,1.4-0.2c0.8,0,1.4,0.1,2,0.3c0.6,0.2,1,0.5,1.3,0.9
			c0.3,0.4,0.5,0.9,0.6,1.5l-1.6,0.2c-0.1-0.5-0.3-0.9-0.6-1.2c-0.3-0.3-0.8-0.4-1.5-0.4c-0.8,0-1.3,0.1-1.6,0.4
			c-0.3,0.2-0.5,0.5-0.5,0.9c0,0.2,0.1,0.4,0.2,0.6c0.1,0.2,0.3,0.3,0.6,0.4c0.2,0.1,0.6,0.2,1.4,0.4c1.2,0.3,2,0.6,2.4,0.8
			c0.5,0.2,0.8,0.5,1.1,0.9c0.3,0.4,0.4,0.8,0.4,1.4c0,0.6-0.2,1.1-0.5,1.5c-0.3,0.5-0.8,0.9-1.4,1.1c-0.6,0.3-1.3,0.4-2,0.4
			c-1.2,0-2.2-0.3-2.9-0.8C123.4,287.3,122.9,286.6,122.8,285.5z M139.1,288.4V287c-0.8,1.1-1.8,1.6-3.1,1.6c-0.6,0-1.1-0.1-1.6-0.3
			c-0.5-0.2-0.9-0.5-1.1-0.8c-0.2-0.3-0.4-0.7-0.5-1.2c-0.1-0.3-0.1-0.8-0.1-1.5v-6h1.6v5.4c0,0.9,0,1.4,0.1,1.7
			c0.1,0.4,0.3,0.8,0.7,1c0.3,0.2,0.7,0.4,1.2,0.4c0.5,0,0.9-0.1,1.4-0.4c0.4-0.3,0.7-0.6,0.9-1c0.2-0.4,0.3-1.1,0.3-1.9v-5.2h1.6
			v9.7H139.1z M143.5,288.4V280h-1.5v-1.3h1.5v-1c0-0.6,0.1-1.1,0.2-1.5c0.2-0.4,0.4-0.8,0.8-1c0.4-0.3,1-0.4,1.7-0.4
			c0.5,0,1,0.1,1.5,0.2l-0.2,1.4c-0.3-0.1-0.7-0.1-1-0.1c-0.5,0-0.9,0.1-1.1,0.3c-0.2,0.2-0.3,0.6-0.3,1.2v0.9h1.9v1.3h-1.9v8.4
			H143.5z M148.4,288.4V280h-1.5v-1.3h1.5v-1c0-0.6,0.1-1.1,0.2-1.5c0.2-0.4,0.4-0.8,0.8-1s1-0.4,1.7-0.4c0.5,0,1,0.1,1.5,0.2
			l-0.2,1.4c-0.3-0.1-0.7-0.1-1-0.1c-0.5,0-0.9,0.1-1.1,0.3c-0.2,0.2-0.3,0.6-0.3,1.2v0.9h1.9v1.3H150v8.4H148.4z M153.1,277v-1.9
			h1.6v1.9H153.1z M153.1,288.4v-9.7h1.6v9.7H153.1z M156.2,288.4l3.5-5l-3.3-4.6h2l1.5,2.3c0.3,0.4,0.5,0.8,0.7,1.1
			c0.3-0.4,0.5-0.8,0.7-1.1l1.6-2.3h2l-3.3,4.5l3.6,5.1h-2l-2-3l-0.5-0.8l-2.5,3.8H156.2z M165.4,288.7l3.9-13.8h1.3l-3.9,13.8
			H165.4z M171.8,292.1v-13.4h1.5v1.2c0.4-0.5,0.8-0.9,1.2-1.1c0.4-0.2,1-0.4,1.6-0.4c0.8,0,1.5,0.2,2.2,0.6c0.6,0.4,1.1,1,1.4,1.8
			c0.3,0.8,0.5,1.6,0.5,2.5c0,1-0.2,1.9-0.5,2.7c-0.4,0.8-0.9,1.4-1.5,1.8c-0.7,0.4-1.4,0.6-2.1,0.6c-0.5,0-1-0.1-1.5-0.3
			s-0.8-0.5-1.1-0.9v4.7H171.8z M173.3,283.6c0,1.2,0.2,2.2,0.8,2.8c0.5,0.6,1.1,0.9,1.8,0.9c0.7,0,1.4-0.3,1.9-0.9
			c0.5-0.6,0.8-1.6,0.8-2.9c0-1.2-0.3-2.2-0.8-2.8c-0.5-0.6-1.1-0.9-1.8-0.9c-0.7,0-1.3,0.3-1.9,1
			C173.6,281.4,173.3,282.4,173.3,283.6z M182.2,288.4v-9.7h1.5v1.5c0.4-0.7,0.7-1.1,1-1.4c0.3-0.2,0.7-0.3,1.1-0.3
			c0.6,0,1.1,0.2,1.7,0.5l-0.6,1.5c-0.4-0.2-0.8-0.4-1.2-0.4c-0.4,0-0.7,0.1-1,0.3s-0.5,0.5-0.6,0.9c-0.2,0.6-0.3,1.2-0.3,1.9v5.1
			H182.2z M195,285.3l1.7,0.2c-0.3,1-0.8,1.8-1.5,2.3c-0.7,0.5-1.6,0.8-2.8,0.8c-1.4,0-2.5-0.4-3.4-1.3c-0.8-0.9-1.2-2.1-1.2-3.7
			c0-1.6,0.4-2.9,1.2-3.8c0.8-0.9,1.9-1.3,3.3-1.3c1.3,0,2.3,0.4,3.2,1.3c0.8,0.9,1.2,2.1,1.2,3.7c0,0.1,0,0.2,0,0.4h-7.2
			c0.1,1.1,0.4,1.9,0.9,2.5c0.5,0.6,1.2,0.8,2,0.8c0.6,0,1.1-0.2,1.5-0.5C194.4,286.5,194.8,286,195,285.3z M189.6,282.7h5.4
			c-0.1-0.8-0.3-1.4-0.6-1.8c-0.5-0.6-1.2-1-2-1c-0.8,0-1.4,0.3-1.9,0.8C190,281.1,189.7,281.8,189.6,282.7z M199.2,288.4V280h-1.5
			v-1.3h1.5v-1c0-0.6,0.1-1.1,0.2-1.5c0.2-0.4,0.4-0.8,0.8-1c0.4-0.3,1-0.4,1.7-0.4c0.5,0,1,0.1,1.5,0.2l-0.2,1.4
			c-0.3-0.1-0.7-0.1-1-0.1c-0.5,0-0.9,0.1-1.1,0.3c-0.2,0.2-0.3,0.6-0.3,1.2v0.9h1.9v1.3h-1.9v8.4H199.2z M204,277v-1.9h1.6v1.9H204
			z M204,288.4v-9.7h1.6v9.7H204z M207,288.4l3.5-5l-3.3-4.6h2l1.5,2.3c0.3,0.4,0.5,0.8,0.7,1.1c0.3-0.4,0.5-0.8,0.7-1.1l1.6-2.3h2
			l-3.3,4.5l3.6,5.1h-2l-2-3l-0.5-0.8l-2.5,3.8H207z M77.2,310.4h-1.5v-13.4h1.6v4.8c0.7-0.9,1.6-1.3,2.7-1.3c0.6,0,1.2,0.1,1.7,0.4
			s1,0.6,1.3,1c0.3,0.4,0.6,0.9,0.8,1.6c0.2,0.6,0.3,1.3,0.3,2c0,1.7-0.4,2.9-1.2,3.8c-0.8,0.9-1.8,1.4-3,1.4c-1.1,0-2-0.5-2.7-1.4
			V310.4z M77.2,305.5c0,1.2,0.2,2,0.5,2.5c0.5,0.8,1.2,1.3,2.1,1.3c0.7,0,1.3-0.3,1.9-0.9s0.8-1.6,0.8-2.8c0-1.3-0.2-2.2-0.8-2.8
			s-1.1-0.9-1.8-0.9c-0.7,0-1.3,0.3-1.9,0.9C77.5,303.4,77.2,304.3,77.2,305.5z M92.7,307.3l1.7,0.2c-0.3,1-0.8,1.8-1.5,2.3
			c-0.7,0.5-1.6,0.8-2.8,0.8c-1.4,0-2.5-0.4-3.4-1.3c-0.8-0.9-1.2-2.1-1.2-3.7c0-1.6,0.4-2.9,1.2-3.8c0.8-0.9,1.9-1.3,3.3-1.3
			c1.3,0,2.3,0.4,3.2,1.3c0.8,0.9,1.2,2.1,1.2,3.7c0,0.1,0,0.2,0,0.4h-7.2c0.1,1.1,0.4,1.9,0.9,2.5c0.5,0.6,1.2,0.8,2,0.8
			c0.6,0,1.1-0.2,1.5-0.5C92.1,308.5,92.5,308,92.7,307.3z M87.3,304.7h5.4c-0.1-0.8-0.3-1.4-0.6-1.8c-0.5-0.6-1.2-1-2-1
			c-0.8,0-1.4,0.3-1.9,0.8C87.7,303.1,87.4,303.8,87.3,304.7z M102.8,306.9l1.6,0.2c-0.2,1.1-0.6,2-1.4,2.6
			c-0.7,0.6-1.6,0.9-2.7,0.9c-1.3,0-2.4-0.4-3.2-1.3s-1.2-2.1-1.2-3.7c0-1.1,0.2-2,0.5-2.8s0.9-1.4,1.6-1.8c0.7-0.4,1.5-0.6,2.3-0.6
			c1.1,0,1.9,0.3,2.6,0.8s1.1,1.3,1.3,2.3l-1.6,0.2c-0.2-0.6-0.4-1.1-0.8-1.5c-0.4-0.3-0.8-0.5-1.4-0.5c-0.8,0-1.5,0.3-2,0.9
			s-0.8,1.5-0.8,2.8c0,1.3,0.2,2.2,0.8,2.8c0.5,0.6,1.2,0.9,2,0.9c0.6,0,1.2-0.2,1.6-0.6C102.4,308.3,102.7,307.7,102.8,306.9z
			 M105.2,305.6c0-1.8,0.5-3.1,1.5-4c0.8-0.7,1.8-1.1,3-1.1c1.3,0,2.4,0.4,3.3,1.3c0.8,0.9,1.3,2.1,1.3,3.6c0,1.2-0.2,2.2-0.6,2.9
			c-0.4,0.7-0.9,1.3-1.6,1.7c-0.7,0.4-1.5,0.6-2.3,0.6c-1.4,0-2.4-0.4-3.3-1.3C105.6,308.5,105.2,307.2,105.2,305.6z M106.9,305.6
			c0,1.2,0.3,2.2,0.8,2.8c0.5,0.6,1.2,0.9,2,0.9c0.8,0,1.5-0.3,2-0.9c0.5-0.6,0.8-1.6,0.8-2.8c0-1.2-0.3-2.1-0.8-2.7s-1.2-0.9-2-0.9
			c-0.8,0-1.5,0.3-2,0.9C107.1,303.4,106.9,304.3,106.9,305.6z M116.2,310.4v-9.7h1.5v1.4c0.3-0.5,0.7-0.9,1.2-1.1
			c0.5-0.3,1.1-0.4,1.7-0.4c0.7,0,1.3,0.2,1.8,0.5c0.5,0.3,0.8,0.7,1,1.2c0.8-1.1,1.8-1.7,3-1.7c1,0,1.7,0.3,2.2,0.8
			c0.5,0.5,0.8,1.3,0.8,2.5v6.6h-1.6v-6.1c0-0.7-0.1-1.1-0.2-1.4c-0.1-0.3-0.3-0.5-0.6-0.7s-0.6-0.3-1-0.3c-0.7,0-1.2,0.2-1.7,0.7
			c-0.4,0.4-0.7,1.2-0.7,2.2v5.6h-1.6v-6.3c0-0.7-0.1-1.3-0.4-1.6c-0.3-0.4-0.7-0.5-1.3-0.5c-0.5,0-0.9,0.1-1.3,0.4
			c-0.4,0.2-0.7,0.6-0.9,1.1c-0.2,0.5-0.2,1.1-0.2,2v5H116.2z M138.3,307.3l1.7,0.2c-0.3,1-0.8,1.8-1.5,2.3
			c-0.7,0.5-1.6,0.8-2.8,0.8c-1.4,0-2.5-0.4-3.4-1.3c-0.8-0.9-1.2-2.1-1.2-3.7c0-1.6,0.4-2.9,1.2-3.8c0.8-0.9,1.9-1.3,3.3-1.3
			c1.3,0,2.3,0.4,3.2,1.3c0.8,0.9,1.2,2.1,1.2,3.7c0,0.1,0,0.2,0,0.4h-7.2c0.1,1.1,0.4,1.9,0.9,2.5c0.5,0.6,1.2,0.8,2,0.8
			c0.6,0,1.1-0.2,1.5-0.5C137.7,308.5,138.1,308,138.3,307.3z M132.9,304.7h5.4c-0.1-0.8-0.3-1.4-0.6-1.8c-0.5-0.6-1.2-1-2-1
			c-0.8,0-1.4,0.3-1.9,0.8C133.3,303.1,133,303.8,132.9,304.7z M141.4,307.5l1.6-0.2c0.1,0.6,0.3,1.1,0.8,1.5c0.4,0.3,1,0.5,1.8,0.5
			s1.3-0.2,1.7-0.5c0.4-0.3,0.5-0.7,0.5-1.1c0-0.4-0.2-0.7-0.5-0.9c-0.2-0.1-0.8-0.3-1.7-0.5c-1.2-0.3-2-0.6-2.5-0.8
			c-0.5-0.2-0.8-0.5-1-0.9c-0.2-0.4-0.4-0.8-0.4-1.3c0-0.4,0.1-0.8,0.3-1.2c0.2-0.4,0.5-0.7,0.8-0.9c0.2-0.2,0.6-0.3,1-0.5
			c0.4-0.1,0.9-0.2,1.4-0.2c0.8,0,1.4,0.1,2,0.3c0.6,0.2,1,0.5,1.3,0.9c0.3,0.4,0.5,0.9,0.6,1.5l-1.6,0.2c-0.1-0.5-0.3-0.9-0.6-1.2
			c-0.3-0.3-0.8-0.4-1.5-0.4c-0.8,0-1.3,0.1-1.6,0.4c-0.3,0.2-0.5,0.5-0.5,0.9c0,0.2,0.1,0.4,0.2,0.6c0.1,0.2,0.3,0.3,0.6,0.4
			c0.2,0.1,0.6,0.2,1.4,0.4c1.2,0.3,2,0.6,2.4,0.8c0.5,0.2,0.8,0.5,1.1,0.9c0.3,0.4,0.4,0.8,0.4,1.4c0,0.6-0.2,1.1-0.5,1.5
			c-0.3,0.5-0.8,0.9-1.4,1.1c-0.6,0.3-1.3,0.4-2,0.4c-1.2,0-2.2-0.3-2.9-0.8C142,309.3,141.6,308.6,141.4,307.5z M162.9,309.2
			c-0.6,0.5-1.2,0.9-1.8,1.1c-0.6,0.2-1.2,0.3-1.8,0.3c-1.1,0-1.9-0.3-2.5-0.8c-0.6-0.5-0.9-1.2-0.9-2c0-0.5,0.1-0.9,0.3-1.3
			c0.2-0.4,0.5-0.7,0.8-0.9c0.4-0.2,0.8-0.4,1.2-0.5c0.3-0.1,0.8-0.2,1.5-0.2c1.3-0.2,2.3-0.3,2.9-0.6c0-0.2,0-0.4,0-0.4
			c0-0.7-0.2-1.1-0.5-1.4c-0.4-0.4-1-0.5-1.9-0.5c-0.8,0-1.3,0.1-1.7,0.4c-0.4,0.3-0.6,0.7-0.8,1.4l-1.6-0.2
			c0.1-0.7,0.4-1.2,0.7-1.6c0.3-0.4,0.8-0.8,1.5-1c0.6-0.2,1.4-0.3,2.2-0.3c0.8,0,1.5,0.1,2,0.3c0.5,0.2,0.9,0.4,1.1,0.7
			c0.2,0.3,0.4,0.7,0.5,1.1c0.1,0.3,0.1,0.8,0.1,1.5v2.2c0,1.5,0,2.5,0.1,2.9c0.1,0.4,0.2,0.8,0.4,1.2h-1.7
			C163.1,310.1,162.9,309.7,162.9,309.2z M162.8,305.6c-0.6,0.2-1.5,0.5-2.7,0.6c-0.7,0.1-1.2,0.2-1.4,0.3s-0.5,0.3-0.7,0.5
			c-0.1,0.2-0.2,0.5-0.2,0.8c0,0.4,0.2,0.8,0.5,1.1c0.3,0.3,0.8,0.4,1.5,0.4c0.6,0,1.2-0.1,1.7-0.4c0.5-0.3,0.9-0.7,1.1-1.1
			c0.2-0.4,0.3-0.9,0.3-1.6V305.6z M172.2,314.1v-13.4h1.5v1.2c0.4-0.5,0.8-0.9,1.2-1.1c0.4-0.2,1-0.4,1.6-0.4
			c0.8,0,1.5,0.2,2.2,0.6c0.6,0.4,1.1,1,1.4,1.8c0.3,0.8,0.5,1.6,0.5,2.5c0,1-0.2,1.9-0.5,2.7c-0.4,0.8-0.9,1.4-1.5,1.8
			c-0.7,0.4-1.4,0.6-2.1,0.6c-0.5,0-1-0.1-1.5-0.3s-0.8-0.5-1.1-0.9v4.7H172.2z M173.6,305.6c0,1.2,0.2,2.2,0.8,2.8
			c0.5,0.6,1.1,0.9,1.8,0.9c0.7,0,1.4-0.3,1.9-0.9c0.5-0.6,0.8-1.6,0.8-2.9c0-1.2-0.3-2.2-0.8-2.8c-0.5-0.6-1.1-0.9-1.8-0.9
			c-0.7,0-1.3,0.3-1.9,1C173.9,303.4,173.6,304.4,173.6,305.6z M188.8,309.2c-0.6,0.5-1.2,0.9-1.8,1.1c-0.6,0.2-1.2,0.3-1.8,0.3
			c-1.1,0-1.9-0.3-2.5-0.8s-0.9-1.2-0.9-2c0-0.5,0.1-0.9,0.3-1.3c0.2-0.4,0.5-0.7,0.8-0.9c0.4-0.2,0.8-0.4,1.2-0.5
			c0.3-0.1,0.8-0.2,1.5-0.2c1.3-0.2,2.3-0.3,2.9-0.6c0-0.2,0-0.4,0-0.4c0-0.7-0.2-1.1-0.5-1.4c-0.4-0.4-1-0.5-1.9-0.5
			c-0.8,0-1.3,0.1-1.7,0.4s-0.6,0.7-0.8,1.4l-1.6-0.2c0.1-0.7,0.4-1.2,0.7-1.6c0.3-0.4,0.8-0.8,1.5-1s1.4-0.3,2.2-0.3
			c0.8,0,1.5,0.1,2,0.3c0.5,0.2,0.9,0.4,1.1,0.7c0.2,0.3,0.4,0.7,0.5,1.1c0.1,0.3,0.1,0.8,0.1,1.5v2.2c0,1.5,0,2.5,0.1,2.9
			c0.1,0.4,0.2,0.8,0.4,1.2h-1.7C189,310.1,188.9,309.7,188.8,309.2z M188.7,305.6c-0.6,0.2-1.5,0.5-2.7,0.6
			c-0.7,0.1-1.2,0.2-1.4,0.3s-0.5,0.3-0.7,0.5c-0.1,0.2-0.2,0.5-0.2,0.8c0,0.4,0.2,0.8,0.5,1.1s0.8,0.4,1.5,0.4
			c0.6,0,1.2-0.1,1.7-0.4c0.5-0.3,0.9-0.7,1.1-1.1c0.2-0.4,0.3-0.9,0.3-1.6V305.6z M196.5,309l0.2,1.5c-0.5,0.1-0.9,0.1-1.2,0.1
			c-0.6,0-1.1-0.1-1.4-0.3c-0.3-0.2-0.6-0.4-0.7-0.7c-0.1-0.3-0.2-1-0.2-1.9V302H192v-1.3h1.2v-2.4l1.6-1v3.4h1.7v1.3h-1.7v5.7
			c0,0.5,0,0.8,0.1,0.9c0.1,0.1,0.2,0.2,0.3,0.3c0.1,0.1,0.3,0.1,0.6,0.1C195.9,309,196.2,309,196.5,309z M198.1,310.4v-13.4h1.6
			v4.8c0.8-0.9,1.7-1.3,2.9-1.3c0.7,0,1.3,0.1,1.9,0.4c0.5,0.3,0.9,0.7,1.1,1.2s0.3,1.2,0.3,2.2v6.1h-1.6v-6.1
			c0-0.8-0.2-1.4-0.5-1.8s-0.9-0.6-1.5-0.6c-0.5,0-0.9,0.1-1.4,0.4c-0.4,0.2-0.7,0.6-0.9,1c-0.2,0.4-0.3,1-0.3,1.8v5.3H198.1z
			 M213.6,299v-1.9h1.6v1.9H213.6z M213.6,310.4v-9.7h1.6v9.7H213.6z M217.8,310.4v-9.7h1.5v1.4c0.7-1.1,1.7-1.6,3.1-1.6
			c0.6,0,1.1,0.1,1.6,0.3c0.5,0.2,0.9,0.5,1.1,0.8c0.2,0.3,0.4,0.7,0.5,1.2c0.1,0.3,0.1,0.8,0.1,1.6v6H224v-5.9
			c0-0.7-0.1-1.2-0.2-1.5c-0.1-0.3-0.3-0.6-0.7-0.8c-0.3-0.2-0.7-0.3-1.1-0.3c-0.7,0-1.3,0.2-1.8,0.7c-0.5,0.4-0.8,1.3-0.8,2.5v5.3
			H217.8z M239.7,309.2c-0.6,0.5-1.2,0.9-1.8,1.1c-0.6,0.2-1.2,0.3-1.8,0.3c-1.1,0-1.9-0.3-2.5-0.8c-0.6-0.5-0.9-1.2-0.9-2
			c0-0.5,0.1-0.9,0.3-1.3c0.2-0.4,0.5-0.7,0.8-0.9c0.4-0.2,0.8-0.4,1.2-0.5c0.3-0.1,0.8-0.2,1.5-0.2c1.3-0.2,2.3-0.3,2.9-0.6
			c0-0.2,0-0.4,0-0.4c0-0.7-0.2-1.1-0.5-1.4c-0.4-0.4-1-0.5-1.9-0.5c-0.8,0-1.3,0.1-1.7,0.4c-0.4,0.3-0.6,0.7-0.8,1.4l-1.6-0.2
			c0.1-0.7,0.4-1.2,0.7-1.6c0.3-0.4,0.8-0.8,1.5-1c0.6-0.2,1.4-0.3,2.2-0.3c0.8,0,1.5,0.1,2,0.3c0.5,0.2,0.9,0.4,1.1,0.7
			c0.2,0.3,0.4,0.7,0.5,1.1c0.1,0.3,0.1,0.8,0.1,1.5v2.2c0,1.5,0,2.5,0.1,2.9c0.1,0.4,0.2,0.8,0.4,1.2H240
			C239.8,310.1,239.7,309.7,239.7,309.2z M239.5,305.6c-0.6,0.2-1.5,0.5-2.7,0.6c-0.7,0.1-1.2,0.2-1.4,0.3s-0.5,0.3-0.7,0.5
			c-0.1,0.2-0.2,0.5-0.2,0.8c0,0.4,0.2,0.8,0.5,1.1c0.3,0.3,0.8,0.4,1.5,0.4c0.6,0,1.2-0.1,1.7-0.4c0.5-0.3,0.9-0.7,1.1-1.1
			c0.2-0.4,0.3-0.9,0.3-1.6V305.6z M75.9,332.4v-13.4h5c0.9,0,1.6,0,2,0.1c0.6,0.1,1.2,0.3,1.6,0.6c0.4,0.3,0.8,0.7,1.1,1.3
			s0.4,1.2,0.4,1.8c0,1.1-0.4,2.1-1.1,2.9c-0.7,0.8-2,1.2-3.9,1.2h-3.4v5.4H75.9z M77.7,325.4h3.5c1.1,0,2-0.2,2.4-0.6
			s0.7-1,0.7-1.8c0-0.6-0.1-1-0.4-1.4s-0.7-0.7-1.1-0.8c-0.3-0.1-0.8-0.1-1.6-0.1h-3.4V325.4z M87.8,325.9c0-2.2,0.6-4,1.8-5.2
			c1.2-1.3,2.7-1.9,4.6-1.9c1.2,0,2.3,0.3,3.3,0.9c1,0.6,1.7,1.4,2.3,2.5c0.5,1.1,0.8,2.2,0.8,3.6c0,1.4-0.3,2.6-0.8,3.6
			c-0.5,1.1-1.3,1.9-2.3,2.4s-2.1,0.8-3.2,0.8c-1.2,0-2.4-0.3-3.4-0.9c-1-0.6-1.7-1.4-2.2-2.5C88.1,328.2,87.8,327.1,87.8,325.9z
			 M89.6,325.9c0,1.6,0.4,2.9,1.3,3.8c0.9,0.9,2,1.4,3.3,1.4c1.3,0,2.4-0.5,3.3-1.4c0.9-0.9,1.3-2.3,1.3-4c0-1.1-0.2-2-0.5-2.8
			c-0.4-0.8-0.9-1.4-1.6-1.9c-0.7-0.4-1.5-0.7-2.4-0.7c-1.3,0-2.3,0.4-3.2,1.3C90.1,322.5,89.6,323.9,89.6,325.9z M101.4,332.4
			l5.1-13.4h1.9l5.5,13.4h-2l-1.5-4h-5.6l-1.5,4H101.4z M105.3,326.9h4.5l-1.4-3.7c-0.4-1.1-0.7-2-0.9-2.8c-0.2,0.9-0.4,1.7-0.7,2.5
			L105.3,326.9z M118.9,333.2l1.6,0.2c0.1,0.5,0.3,0.9,0.6,1.1c0.4,0.3,1,0.5,1.7,0.5c0.8,0,1.3-0.2,1.8-0.5
			c0.4-0.3,0.7-0.7,0.8-1.3c0.1-0.3,0.1-1,0.1-2.1c-0.7,0.8-1.6,1.3-2.7,1.3c-1.3,0-2.4-0.5-3.1-1.4c-0.7-1-1.1-2.1-1.1-3.5
			c0-0.9,0.2-1.8,0.5-2.6c0.3-0.8,0.8-1.4,1.5-1.8c0.6-0.4,1.4-0.6,2.2-0.6c1.1,0,2.1,0.5,2.8,1.4v-1.2h1.5v8.4
			c0,1.5-0.2,2.6-0.5,3.2c-0.3,0.6-0.8,1.1-1.5,1.5c-0.7,0.4-1.5,0.5-2.5,0.5c-1.1,0-2.1-0.3-2.8-0.8
			C119.3,335.1,118.9,334.3,118.9,333.2z M120.3,327.4c0,1.3,0.2,2.2,0.8,2.8c0.5,0.6,1.1,0.9,1.9,0.9c0.8,0,1.4-0.3,1.9-0.9
			c0.5-0.6,0.8-1.5,0.8-2.7c0-1.2-0.3-2.1-0.8-2.7c-0.5-0.6-1.2-0.9-1.9-0.9c-0.7,0-1.3,0.3-1.9,0.9
			C120.6,325.4,120.3,326.2,120.3,327.4z M129.6,332.4v-9.7h1.5v1.5c0.4-0.7,0.7-1.1,1-1.4c0.3-0.2,0.7-0.3,1.1-0.3
			c0.6,0,1.1,0.2,1.7,0.5l-0.6,1.5c-0.4-0.2-0.8-0.4-1.2-0.4c-0.4,0-0.7,0.1-1,0.3s-0.5,0.5-0.6,0.9c-0.2,0.6-0.3,1.2-0.3,1.9v5.1
			H129.6z M142.2,331.2c-0.6,0.5-1.2,0.9-1.8,1.1c-0.6,0.2-1.2,0.3-1.8,0.3c-1.1,0-1.9-0.3-2.5-0.8c-0.6-0.5-0.9-1.2-0.9-2
			c0-0.5,0.1-0.9,0.3-1.3c0.2-0.4,0.5-0.7,0.8-0.9c0.4-0.2,0.8-0.4,1.2-0.5c0.3-0.1,0.8-0.2,1.5-0.2c1.3-0.2,2.3-0.3,2.9-0.6
			c0-0.2,0-0.4,0-0.4c0-0.7-0.2-1.1-0.5-1.4c-0.4-0.4-1-0.5-1.9-0.5c-0.8,0-1.3,0.1-1.7,0.4c-0.4,0.3-0.6,0.7-0.8,1.4l-1.6-0.2
			c0.1-0.7,0.4-1.2,0.7-1.6c0.3-0.4,0.8-0.8,1.5-1c0.6-0.2,1.4-0.3,2.2-0.3c0.8,0,1.5,0.1,2,0.3c0.5,0.2,0.9,0.4,1.1,0.7
			c0.2,0.3,0.4,0.7,0.5,1.1c0.1,0.3,0.1,0.8,0.1,1.5v2.2c0,1.5,0,2.5,0.1,2.9c0.1,0.4,0.2,0.8,0.4,1.2h-1.7
			C142.3,332.1,142.2,331.7,142.2,331.2z M142,327.6c-0.6,0.2-1.5,0.5-2.7,0.6c-0.7,0.1-1.2,0.2-1.4,0.3s-0.5,0.3-0.7,0.5
			c-0.1,0.2-0.2,0.5-0.2,0.8c0,0.4,0.2,0.8,0.5,1.1c0.3,0.3,0.8,0.4,1.5,0.4c0.6,0,1.2-0.1,1.7-0.4c0.5-0.3,0.9-0.7,1.1-1.1
			c0.2-0.4,0.3-0.9,0.3-1.6V327.6z M146.2,336.1v-13.4h1.5v1.2c0.4-0.5,0.8-0.9,1.2-1.1c0.4-0.2,1-0.4,1.6-0.4
			c0.8,0,1.5,0.2,2.2,0.6c0.6,0.4,1.1,1,1.4,1.8c0.3,0.8,0.5,1.6,0.5,2.5c0,1-0.2,1.9-0.5,2.7c-0.4,0.8-0.9,1.4-1.5,1.8
			c-0.7,0.4-1.4,0.6-2.1,0.6c-0.5,0-1-0.1-1.5-0.3s-0.8-0.5-1.1-0.9v4.7H146.2z M147.7,327.6c0,1.2,0.2,2.2,0.8,2.8
			c0.5,0.6,1.1,0.9,1.8,0.9c0.7,0,1.4-0.3,1.9-0.9c0.5-0.6,0.8-1.6,0.8-2.9c0-1.2-0.3-2.2-0.8-2.8c-0.5-0.6-1.1-0.9-1.8-0.9
			c-0.7,0-1.3,0.3-1.9,1C148,325.4,147.7,326.4,147.7,327.6z M156.6,332.4v-13.4h1.6v4.8c0.8-0.9,1.7-1.3,2.9-1.3
			c0.7,0,1.3,0.1,1.9,0.4c0.5,0.3,0.9,0.7,1.1,1.2c0.2,0.5,0.3,1.2,0.3,2.2v6.1h-1.6v-6.1c0-0.8-0.2-1.4-0.5-1.8
			c-0.4-0.4-0.9-0.6-1.5-0.6c-0.5,0-0.9,0.1-1.4,0.4c-0.4,0.2-0.7,0.6-0.9,1c-0.2,0.4-0.3,1-0.3,1.8v5.3H156.6z M75.1,443.1l2.6-0.2
			c0.2,0.9,0.5,1.5,1,1.9c0.5,0.4,1.1,0.6,2,0.6c0.9,0,1.5-0.2,2-0.5c0.4-0.4,0.7-0.8,0.7-1.3c0-0.3-0.1-0.6-0.3-0.8s-0.5-0.4-1-0.6
			c-0.3-0.1-1-0.3-2.2-0.6c-1.4-0.4-2.4-0.8-3-1.3c-0.8-0.7-1.2-1.6-1.2-2.7c0-0.7,0.2-1.3,0.6-1.9s0.9-1,1.7-1.3
			c0.7-0.3,1.6-0.5,2.6-0.5c1.7,0,2.9,0.4,3.8,1.1c0.9,0.7,1.3,1.7,1.3,2.9l-2.7,0.1c-0.1-0.7-0.4-1.2-0.8-1.5
			c-0.4-0.3-0.9-0.5-1.7-0.5c-0.8,0-1.4,0.2-1.8,0.5c-0.3,0.2-0.4,0.5-0.4,0.8c0,0.3,0.1,0.6,0.4,0.8c0.3,0.3,1.2,0.6,2.5,0.9
			c1.3,0.3,2.3,0.6,2.9,1c0.6,0.3,1.1,0.8,1.5,1.4s0.5,1.3,0.5,2.1c0,0.8-0.2,1.5-0.6,2.2s-1,1.2-1.8,1.5c-0.8,0.3-1.7,0.5-2.9,0.5
			c-1.7,0-3-0.4-3.9-1.2S75.3,444.6,75.1,443.1z M88.2,437.8h2.4v1.4c0.3-0.5,0.7-0.9,1.2-1.2c0.5-0.3,1.1-0.5,1.8-0.5
			c1.1,0,2.1,0.4,2.9,1.3c0.8,0.9,1.2,2.1,1.2,3.7c0,1.6-0.4,2.9-1.2,3.8c-0.8,0.9-1.7,1.3-2.9,1.3c-0.5,0-1-0.1-1.5-0.3
			c-0.4-0.2-0.9-0.6-1.4-1.1v4.9h-2.6V437.8z M90.7,442.4c0,1.1,0.2,1.9,0.6,2.4c0.4,0.5,1,0.8,1.6,0.8c0.6,0,1.1-0.2,1.5-0.7
			c0.4-0.5,0.6-1.3,0.6-2.3c0-1-0.2-1.8-0.6-2.2c-0.4-0.5-0.9-0.8-1.5-0.8c-0.6,0-1.1,0.2-1.6,0.7C90.9,440.8,90.7,441.5,90.7,442.4
			z M99.7,447.4v-13.4h2.6v13.4H99.7z M104.8,436.4v-2.4h2.6v2.4H104.8z M104.8,447.4v-9.7h2.6v9.7H104.8z M118.5,440.6l-2.5,0.5
			c-0.1-0.5-0.3-0.9-0.6-1.1c-0.3-0.3-0.7-0.4-1.2-0.4c-0.6,0-1.1,0.2-1.5,0.7c-0.4,0.4-0.6,1.2-0.6,2.2c0,1.2,0.2,2,0.6,2.4
			s0.9,0.7,1.5,0.7c0.5,0,0.9-0.1,1.2-0.4c0.3-0.3,0.5-0.8,0.7-1.4l2.5,0.4c-0.3,1.2-0.8,2-1.5,2.6c-0.7,0.6-1.7,0.9-3,0.9
			c-1.4,0-2.5-0.4-3.4-1.3c-0.8-0.9-1.2-2.1-1.2-3.7c0-1.6,0.4-2.8,1.3-3.7c0.8-0.9,2-1.3,3.4-1.3c1.2,0,2.1,0.3,2.8,0.8
			C117.6,438.8,118.1,439.6,118.5,440.6z M126,444.4l2.5,0.4c-0.3,0.9-0.8,1.7-1.5,2.1c-0.7,0.5-1.6,0.7-2.7,0.7
			c-1.7,0-2.9-0.6-3.7-1.7c-0.6-0.9-1-2-1-3.3c0-1.6,0.4-2.9,1.2-3.8c0.8-0.9,1.9-1.4,3.2-1.4c1.4,0,2.6,0.5,3.4,1.4
			c0.8,0.9,1.2,2.4,1.2,4.4h-6.4c0,0.8,0.2,1.4,0.6,1.8c0.4,0.4,0.9,0.6,1.5,0.6c0.4,0,0.7-0.1,1-0.3
			C125.7,445.2,125.9,444.8,126,444.4z M126.2,441.8c0-0.7-0.2-1.3-0.6-1.7c-0.4-0.4-0.8-0.6-1.3-0.6c-0.6,0-1,0.2-1.4,0.6
			c-0.4,0.4-0.5,1-0.5,1.7H126.2z M84.7,456.1h1.8v7.7c0,1.3-0.2,2.4-0.5,3.2s-0.8,1.4-1.6,1.9c-0.8,0.5-1.8,0.7-3.1,0.7
			c-1.2,0-2.3-0.2-3.1-0.6c-0.8-0.4-1.4-1.1-1.7-1.9c-0.3-0.8-0.5-1.9-0.5-3.4v-7.7h1.8v7.7c0,1.2,0.1,2,0.3,2.6
			c0.2,0.5,0.6,1,1.1,1.3c0.5,0.3,1.2,0.5,1.9,0.5c1.3,0,2.2-0.3,2.8-0.9s0.8-1.7,0.8-3.4V456.1z M88.5,466.5l1.6-0.2
			c0.1,0.6,0.3,1.1,0.8,1.5c0.4,0.3,1,0.5,1.8,0.5s1.3-0.2,1.7-0.5c0.4-0.3,0.5-0.7,0.5-1.1c0-0.4-0.2-0.7-0.5-0.9
			c-0.2-0.1-0.8-0.3-1.7-0.5c-1.2-0.3-2-0.6-2.5-0.8c-0.5-0.2-0.8-0.5-1-0.9c-0.2-0.4-0.4-0.8-0.4-1.3c0-0.4,0.1-0.8,0.3-1.2
			c0.2-0.4,0.5-0.7,0.8-0.9c0.2-0.2,0.6-0.3,1-0.5c0.4-0.1,0.9-0.2,1.4-0.2c0.8,0,1.4,0.1,2,0.3c0.6,0.2,1,0.5,1.3,0.9
			c0.3,0.4,0.5,0.9,0.6,1.5l-1.6,0.2c-0.1-0.5-0.3-0.9-0.6-1.2c-0.3-0.3-0.8-0.4-1.5-0.4c-0.8,0-1.3,0.1-1.6,0.4
			c-0.3,0.2-0.5,0.5-0.5,0.9c0,0.2,0.1,0.4,0.2,0.6c0.1,0.2,0.3,0.3,0.6,0.4c0.2,0.1,0.6,0.2,1.4,0.4c1.2,0.3,2,0.6,2.4,0.8
			c0.5,0.2,0.8,0.5,1.1,0.9c0.3,0.4,0.4,0.8,0.4,1.4c0,0.6-0.2,1.1-0.5,1.5c-0.3,0.5-0.8,0.9-1.4,1.1c-0.6,0.3-1.3,0.4-2,0.4
			c-1.2,0-2.2-0.3-2.9-0.8C89.1,468.3,88.7,467.6,88.5,466.5z M105.1,466.3l1.7,0.2c-0.3,1-0.8,1.8-1.5,2.3
			c-0.7,0.5-1.6,0.8-2.8,0.8c-1.4,0-2.5-0.4-3.4-1.3c-0.8-0.9-1.2-2.1-1.2-3.7c0-1.6,0.4-2.9,1.2-3.8c0.8-0.9,1.9-1.3,3.3-1.3
			c1.3,0,2.3,0.4,3.2,1.3c0.8,0.9,1.2,2.1,1.2,3.7c0,0.1,0,0.2,0,0.4h-7.2c0.1,1.1,0.4,1.9,0.9,2.5c0.5,0.6,1.2,0.8,2,0.8
			c0.6,0,1.1-0.2,1.5-0.5C104.5,467.5,104.9,467,105.1,466.3z M99.7,463.7h5.4c-0.1-0.8-0.3-1.4-0.6-1.8c-0.5-0.6-1.2-1-2-1
			c-0.8,0-1.4,0.3-1.9,0.8C100.1,462.1,99.8,462.8,99.7,463.7z M114.1,473.1v-13.4h1.5v1.2c0.4-0.5,0.8-0.9,1.2-1.1
			c0.4-0.2,1-0.4,1.6-0.4c0.8,0,1.5,0.2,2.2,0.6c0.6,0.4,1.1,1,1.4,1.8c0.3,0.8,0.5,1.6,0.5,2.5c0,1-0.2,1.9-0.5,2.7
			c-0.4,0.8-0.9,1.4-1.5,1.8c-0.7,0.4-1.4,0.6-2.1,0.6c-0.5,0-1-0.1-1.5-0.3s-0.8-0.5-1.1-0.9v4.7H114.1z M115.6,464.6
			c0,1.2,0.2,2.2,0.8,2.8c0.5,0.6,1.1,0.9,1.8,0.9c0.7,0,1.4-0.3,1.9-0.9c0.5-0.6,0.8-1.6,0.8-2.9c0-1.2-0.3-2.2-0.8-2.8
			c-0.5-0.6-1.1-0.9-1.8-0.9c-0.7,0-1.3,0.3-1.9,1C115.8,462.4,115.6,463.4,115.6,464.6z M130.8,468.2c-0.6,0.5-1.2,0.9-1.8,1.1
			c-0.6,0.2-1.2,0.3-1.8,0.3c-1.1,0-1.9-0.3-2.5-0.8s-0.9-1.2-0.9-2c0-0.5,0.1-0.9,0.3-1.3c0.2-0.4,0.5-0.7,0.8-0.9
			c0.4-0.2,0.8-0.4,1.2-0.5c0.3-0.1,0.8-0.2,1.5-0.2c1.3-0.2,2.3-0.3,2.9-0.6c0-0.2,0-0.4,0-0.4c0-0.7-0.2-1.1-0.5-1.4
			c-0.4-0.4-1-0.5-1.9-0.5c-0.8,0-1.3,0.1-1.7,0.4s-0.6,0.7-0.8,1.4l-1.6-0.2c0.1-0.7,0.4-1.2,0.7-1.6c0.3-0.4,0.8-0.8,1.5-1
			s1.4-0.3,2.2-0.3c0.8,0,1.5,0.1,2,0.3c0.5,0.2,0.9,0.4,1.1,0.7c0.2,0.3,0.4,0.7,0.5,1.1c0.1,0.3,0.1,0.8,0.1,1.5v2.2
			c0,1.5,0,2.5,0.1,2.9c0.1,0.4,0.2,0.8,0.4,1.2h-1.7C130.9,469.1,130.8,468.7,130.8,468.2z M130.6,464.6c-0.6,0.2-1.5,0.5-2.7,0.6
			c-0.7,0.1-1.2,0.2-1.4,0.3s-0.5,0.3-0.7,0.5c-0.1,0.2-0.2,0.5-0.2,0.8c0,0.4,0.2,0.8,0.5,1.1s0.8,0.4,1.5,0.4
			c0.6,0,1.2-0.1,1.7-0.4c0.5-0.3,0.9-0.7,1.1-1.1c0.2-0.4,0.3-0.9,0.3-1.6V464.6z M138.4,468l0.2,1.5c-0.5,0.1-0.9,0.1-1.2,0.1
			c-0.6,0-1.1-0.1-1.4-0.3c-0.3-0.2-0.6-0.4-0.7-0.7c-0.1-0.3-0.2-1-0.2-1.9V461h-1.2v-1.3h1.2v-2.4l1.6-1v3.4h1.7v1.3h-1.7v5.7
			c0,0.5,0,0.8,0.1,0.9c0.1,0.1,0.2,0.2,0.3,0.3c0.1,0.1,0.3,0.1,0.6,0.1C137.9,468,138.1,468,138.4,468z M140,469.4v-13.4h1.6v4.8
			c0.8-0.9,1.7-1.3,2.9-1.3c0.7,0,1.3,0.1,1.9,0.4c0.5,0.3,0.9,0.7,1.1,1.2c0.2,0.5,0.3,1.2,0.3,2.2v6.1h-1.6v-6.1
			c0-0.8-0.2-1.4-0.5-1.8c-0.4-0.4-0.9-0.6-1.5-0.6c-0.5,0-0.9,0.1-1.4,0.4c-0.4,0.2-0.7,0.6-0.9,1c-0.2,0.4-0.3,1-0.3,1.8v5.3H140z
			 M149.7,466.5l1.6-0.2c0.1,0.6,0.3,1.1,0.8,1.5c0.4,0.3,1,0.5,1.8,0.5s1.3-0.2,1.7-0.5c0.4-0.3,0.5-0.7,0.5-1.1
			c0-0.4-0.2-0.7-0.5-0.9c-0.2-0.1-0.8-0.3-1.7-0.5c-1.2-0.3-2-0.6-2.5-0.8c-0.5-0.2-0.8-0.5-1-0.9c-0.2-0.4-0.4-0.8-0.4-1.3
			c0-0.4,0.1-0.8,0.3-1.2c0.2-0.4,0.5-0.7,0.8-0.9c0.2-0.2,0.6-0.3,1-0.5c0.4-0.1,0.9-0.2,1.4-0.2c0.8,0,1.4,0.1,2,0.3
			c0.6,0.2,1,0.5,1.3,0.9c0.3,0.4,0.5,0.9,0.6,1.5l-1.6,0.2c-0.1-0.5-0.3-0.9-0.6-1.2c-0.3-0.3-0.8-0.4-1.5-0.4
			c-0.8,0-1.3,0.1-1.6,0.4c-0.3,0.2-0.5,0.5-0.5,0.9c0,0.2,0.1,0.4,0.2,0.6c0.1,0.2,0.3,0.3,0.6,0.4c0.2,0.1,0.6,0.2,1.4,0.4
			c1.2,0.3,2,0.6,2.4,0.8c0.5,0.2,0.8,0.5,1.1,0.9c0.3,0.4,0.4,0.8,0.4,1.4c0,0.6-0.2,1.1-0.5,1.5c-0.3,0.5-0.8,0.9-1.4,1.1
			c-0.6,0.3-1.3,0.4-2,0.4c-1.2,0-2.2-0.3-2.9-0.8C150.3,468.3,149.9,467.6,149.7,466.5z M168.5,468l0.2,1.5
			c-0.5,0.1-0.9,0.1-1.2,0.1c-0.6,0-1.1-0.1-1.4-0.3c-0.3-0.2-0.6-0.4-0.7-0.7c-0.1-0.3-0.2-1-0.2-1.9V461H164v-1.3h1.2v-2.4l1.6-1
			v3.4h1.7v1.3h-1.7v5.7c0,0.5,0,0.8,0.1,0.9c0.1,0.1,0.2,0.2,0.3,0.3c0.1,0.1,0.3,0.1,0.6,0.1C167.9,468,168.2,468,168.5,468z
			 M169.5,464.6c0-1.8,0.5-3.1,1.5-4c0.8-0.7,1.8-1.1,3-1.1c1.3,0,2.4,0.4,3.3,1.3c0.8,0.9,1.3,2.1,1.3,3.6c0,1.2-0.2,2.2-0.6,2.9
			c-0.4,0.7-0.9,1.3-1.6,1.7c-0.7,0.4-1.5,0.6-2.3,0.6c-1.4,0-2.4-0.4-3.3-1.3C169.9,467.5,169.5,466.2,169.5,464.6z M171.2,464.6
			c0,1.2,0.3,2.2,0.8,2.8c0.5,0.6,1.2,0.9,2,0.9c0.8,0,1.5-0.3,2-0.9c0.5-0.6,0.8-1.6,0.8-2.8c0-1.2-0.3-2.1-0.8-2.7s-1.2-0.9-2-0.9
			c-0.8,0-1.5,0.3-2,0.9C171.4,462.4,171.2,463.3,171.2,464.6z M189.2,468l0.2,1.5c-0.5,0.1-0.9,0.1-1.2,0.1c-0.6,0-1.1-0.1-1.4-0.3
			c-0.3-0.2-0.6-0.4-0.7-0.7c-0.1-0.3-0.2-1-0.2-1.9V461h-1.2v-1.3h1.2v-2.4l1.6-1v3.4h1.7v1.3h-1.7v5.7c0,0.5,0,0.8,0.1,0.9
			c0.1,0.1,0.2,0.2,0.3,0.3c0.1,0.1,0.3,0.1,0.6,0.1C188.7,468,188.9,468,189.2,468z M190.8,469.4v-9.7h1.5v1.5
			c0.4-0.7,0.7-1.1,1-1.4c0.3-0.2,0.7-0.3,1.1-0.3c0.6,0,1.1,0.2,1.7,0.5l-0.6,1.5c-0.4-0.2-0.8-0.4-1.2-0.4c-0.4,0-0.7,0.1-1,0.3
			s-0.5,0.5-0.6,0.9c-0.2,0.6-0.3,1.2-0.3,1.9v5.1H190.8z M203.3,468.2c-0.6,0.5-1.2,0.9-1.8,1.1c-0.6,0.2-1.2,0.3-1.8,0.3
			c-1.1,0-1.9-0.3-2.5-0.8s-0.9-1.2-0.9-2c0-0.5,0.1-0.9,0.3-1.3c0.2-0.4,0.5-0.7,0.8-0.9c0.4-0.2,0.8-0.4,1.2-0.5
			c0.3-0.1,0.8-0.2,1.5-0.2c1.3-0.2,2.3-0.3,2.9-0.6c0-0.2,0-0.4,0-0.4c0-0.7-0.2-1.1-0.5-1.4c-0.4-0.4-1-0.5-1.9-0.5
			c-0.8,0-1.3,0.1-1.7,0.4s-0.6,0.7-0.8,1.4l-1.6-0.2c0.1-0.7,0.4-1.2,0.7-1.6c0.3-0.4,0.8-0.8,1.5-1s1.4-0.3,2.2-0.3
			c0.8,0,1.5,0.1,2,0.3c0.5,0.2,0.9,0.4,1.1,0.7c0.2,0.3,0.4,0.7,0.5,1.1c0.1,0.3,0.1,0.8,0.1,1.5v2.2c0,1.5,0,2.5,0.1,2.9
			c0.1,0.4,0.2,0.8,0.4,1.2h-1.7C203.5,469.1,203.4,468.7,203.3,468.2z M203.2,464.6c-0.6,0.2-1.5,0.5-2.7,0.6
			c-0.7,0.1-1.2,0.2-1.4,0.3s-0.5,0.3-0.7,0.5c-0.1,0.2-0.2,0.5-0.2,0.8c0,0.4,0.2,0.8,0.5,1.1s0.8,0.4,1.5,0.4
			c0.6,0,1.2-0.1,1.7-0.4c0.5-0.3,0.9-0.7,1.1-1.1c0.2-0.4,0.3-0.9,0.3-1.6V464.6z M213.7,465.9l1.6,0.2c-0.2,1.1-0.6,2-1.4,2.6
			c-0.7,0.6-1.6,0.9-2.7,0.9c-1.3,0-2.4-0.4-3.2-1.3c-0.8-0.9-1.2-2.1-1.2-3.7c0-1.1,0.2-2,0.5-2.8s0.9-1.4,1.6-1.8
			c0.7-0.4,1.5-0.6,2.3-0.6c1.1,0,1.9,0.3,2.6,0.8c0.7,0.5,1.1,1.3,1.3,2.3l-1.6,0.2c-0.2-0.6-0.4-1.1-0.8-1.5
			c-0.4-0.3-0.8-0.5-1.4-0.5c-0.8,0-1.5,0.3-2,0.9c-0.5,0.6-0.8,1.5-0.8,2.8c0,1.3,0.2,2.2,0.8,2.8c0.5,0.6,1.2,0.9,2,0.9
			c0.6,0,1.2-0.2,1.6-0.6C213.3,467.3,213.6,466.7,213.7,465.9z M216.7,469.4v-13.4h1.6v7.6l3.9-3.9h2.1l-3.7,3.6l4.1,6.1h-2l-3.2-5
			l-1.2,1.1v3.8H216.7z M77.5,491.4l-3-9.7h1.7l1.5,5.6l0.6,2.1c0-0.1,0.2-0.8,0.5-2l1.5-5.7h1.7l1.4,5.6l0.5,1.8l0.6-1.9l1.7-5.6
			h1.6l-3,9.7h-1.7l-1.5-5.8l-0.4-1.6l-2,7.4H77.5z M89.2,491.4v-13.4h1.6v4.8c0.8-0.9,1.7-1.3,2.9-1.3c0.7,0,1.3,0.1,1.9,0.4
			c0.5,0.3,0.9,0.7,1.1,1.2c0.2,0.5,0.3,1.2,0.3,2.2v6.1h-1.6v-6.1c0-0.8-0.2-1.4-0.5-1.8c-0.4-0.4-0.9-0.6-1.5-0.6
			c-0.5,0-0.9,0.1-1.4,0.4c-0.4,0.2-0.7,0.6-0.9,1c-0.2,0.4-0.3,1-0.3,1.8v5.3H89.2z M106.2,488.3l1.7,0.2c-0.3,1-0.8,1.8-1.5,2.3
			c-0.7,0.5-1.6,0.8-2.8,0.8c-1.4,0-2.5-0.4-3.4-1.3c-0.8-0.9-1.2-2.1-1.2-3.7c0-1.6,0.4-2.9,1.2-3.8c0.8-0.9,1.9-1.3,3.3-1.3
			c1.3,0,2.3,0.4,3.2,1.3c0.8,0.9,1.2,2.1,1.2,3.7c0,0.1,0,0.2,0,0.4h-7.2c0.1,1.1,0.4,1.9,0.9,2.5c0.5,0.6,1.2,0.8,2,0.8
			c0.6,0,1.1-0.2,1.5-0.5C105.6,489.5,105.9,489,106.2,488.3z M100.8,485.7h5.4c-0.1-0.8-0.3-1.4-0.6-1.8c-0.5-0.6-1.2-1-2-1
			c-0.8,0-1.4,0.3-1.9,0.8C101.1,484.1,100.8,484.8,100.8,485.7z M109.9,491.4v-9.7h1.5v1.5c0.4-0.7,0.7-1.1,1-1.4
			c0.3-0.2,0.7-0.3,1.1-0.3c0.6,0,1.1,0.2,1.7,0.5l-0.6,1.5c-0.4-0.2-0.8-0.4-1.2-0.4c-0.4,0-0.7,0.1-1,0.3s-0.5,0.5-0.6,0.9
			c-0.2,0.6-0.3,1.2-0.3,1.9v5.1H109.9z M122.8,488.3l1.7,0.2c-0.3,1-0.8,1.8-1.5,2.3c-0.7,0.5-1.6,0.8-2.8,0.8
			c-1.4,0-2.5-0.4-3.4-1.3c-0.8-0.9-1.2-2.1-1.2-3.7c0-1.6,0.4-2.9,1.2-3.8c0.8-0.9,1.9-1.3,3.3-1.3c1.3,0,2.3,0.4,3.2,1.3
			c0.8,0.9,1.2,2.1,1.2,3.7c0,0.1,0,0.2,0,0.4h-7.2c0.1,1.1,0.4,1.9,0.9,2.5c0.5,0.6,1.2,0.8,2,0.8c0.6,0,1.1-0.2,1.5-0.5
			C122.2,489.5,122.5,489,122.8,488.3z M117.4,485.7h5.4c-0.1-0.8-0.3-1.4-0.6-1.8c-0.5-0.6-1.2-1-2-1c-0.8,0-1.4,0.3-1.9,0.8
			C117.7,484.1,117.4,484.8,117.4,485.7z M138.3,488.3l1.7,0.2c-0.3,1-0.8,1.8-1.5,2.3c-0.7,0.5-1.6,0.8-2.8,0.8
			c-1.4,0-2.5-0.4-3.4-1.3c-0.8-0.9-1.2-2.1-1.2-3.7c0-1.6,0.4-2.9,1.2-3.8c0.8-0.9,1.9-1.3,3.3-1.3c1.3,0,2.3,0.4,3.2,1.3
			c0.8,0.9,1.2,2.1,1.2,3.7c0,0.1,0,0.2,0,0.4h-7.2c0.1,1.1,0.4,1.9,0.9,2.5c0.5,0.6,1.2,0.8,2,0.8c0.6,0,1.1-0.2,1.5-0.5
			C137.7,489.5,138.1,489,138.3,488.3z M132.9,485.7h5.4c-0.1-0.8-0.3-1.4-0.6-1.8c-0.5-0.6-1.2-1-2-1c-0.8,0-1.4,0.3-1.9,0.8
			C133.3,484.1,133,484.8,132.9,485.7z M148.4,490.2c-0.6,0.5-1.2,0.9-1.8,1.1c-0.6,0.2-1.2,0.3-1.8,0.3c-1.1,0-1.9-0.3-2.5-0.8
			c-0.6-0.5-0.9-1.2-0.9-2c0-0.5,0.1-0.9,0.3-1.3c0.2-0.4,0.5-0.7,0.8-0.9c0.4-0.2,0.8-0.4,1.2-0.5c0.3-0.1,0.8-0.2,1.5-0.2
			c1.3-0.2,2.3-0.3,2.9-0.6c0-0.2,0-0.4,0-0.4c0-0.7-0.2-1.1-0.5-1.4c-0.4-0.4-1-0.5-1.9-0.5c-0.8,0-1.3,0.1-1.7,0.4
			c-0.4,0.3-0.6,0.7-0.8,1.4l-1.6-0.2c0.1-0.7,0.4-1.2,0.7-1.6c0.3-0.4,0.8-0.8,1.5-1c0.6-0.2,1.4-0.3,2.2-0.3c0.8,0,1.5,0.1,2,0.3
			c0.5,0.2,0.9,0.4,1.1,0.7c0.2,0.3,0.4,0.7,0.5,1.1c0.1,0.3,0.1,0.8,0.1,1.5v2.2c0,1.5,0,2.5,0.1,2.9c0.1,0.4,0.2,0.8,0.4,1.2h-1.7
			C148.5,491.1,148.4,490.7,148.4,490.2z M148.3,486.6c-0.6,0.2-1.5,0.5-2.7,0.6c-0.7,0.1-1.2,0.2-1.4,0.3s-0.5,0.3-0.7,0.5
			c-0.1,0.2-0.2,0.5-0.2,0.8c0,0.4,0.2,0.8,0.5,1.1c0.3,0.3,0.8,0.4,1.5,0.4c0.6,0,1.2-0.1,1.7-0.4c0.5-0.3,0.9-0.7,1.1-1.1
			c0.2-0.4,0.3-0.9,0.3-1.6V486.6z M158.8,487.9l1.6,0.2c-0.2,1.1-0.6,2-1.4,2.6c-0.7,0.6-1.6,0.9-2.7,0.9c-1.3,0-2.4-0.4-3.2-1.3
			c-0.8-0.9-1.2-2.1-1.2-3.7c0-1.1,0.2-2,0.5-2.8s0.9-1.4,1.6-1.8c0.7-0.4,1.5-0.6,2.3-0.6c1.1,0,1.9,0.3,2.6,0.8
			c0.7,0.5,1.1,1.3,1.3,2.3l-1.6,0.2c-0.2-0.6-0.4-1.1-0.8-1.5c-0.4-0.3-0.8-0.5-1.4-0.5c-0.8,0-1.5,0.3-2,0.9
			c-0.5,0.6-0.8,1.5-0.8,2.8c0,1.3,0.2,2.2,0.8,2.8c0.5,0.6,1.2,0.9,2,0.9c0.6,0,1.2-0.2,1.6-0.6
			C158.4,489.3,158.7,488.7,158.8,487.9z M161.8,491.4v-13.4h1.6v4.8c0.8-0.9,1.7-1.3,2.9-1.3c0.7,0,1.3,0.1,1.9,0.4
			c0.5,0.3,0.9,0.7,1.1,1.2c0.2,0.5,0.3,1.2,0.3,2.2v6.1H168v-6.1c0-0.8-0.2-1.4-0.5-1.8c-0.4-0.4-0.9-0.6-1.5-0.6
			c-0.5,0-0.9,0.1-1.4,0.4c-0.4,0.2-0.7,0.6-0.9,1c-0.2,0.4-0.3,1-0.3,1.8v5.3H161.8z M176.7,486.6c0-1.8,0.5-3.1,1.5-4
			c0.8-0.7,1.8-1.1,3-1.1c1.3,0,2.4,0.4,3.3,1.3c0.8,0.9,1.3,2.1,1.3,3.6c0,1.2-0.2,2.2-0.6,2.9c-0.4,0.7-0.9,1.3-1.6,1.7
			c-0.7,0.4-1.5,0.6-2.3,0.6c-1.4,0-2.4-0.4-3.3-1.3C177.2,489.5,176.7,488.2,176.7,486.6z M178.4,486.6c0,1.2,0.3,2.2,0.8,2.8
			c0.5,0.6,1.2,0.9,2,0.9c0.8,0,1.5-0.3,2-0.9c0.5-0.6,0.8-1.6,0.8-2.8c0-1.2-0.3-2.1-0.8-2.7c-0.5-0.6-1.2-0.9-2-0.9
			c-0.8,0-1.5,0.3-2,0.9C178.7,484.4,178.4,485.3,178.4,486.6z M190.4,491.4l-3.7-9.7h1.7l2.1,5.8c0.2,0.6,0.4,1.3,0.6,1.9
			c0.1-0.5,0.3-1.1,0.6-1.8l2.1-5.9h1.7l-3.7,9.7H190.4z M203.7,488.3l1.7,0.2c-0.3,1-0.8,1.8-1.5,2.3c-0.7,0.5-1.6,0.8-2.8,0.8
			c-1.4,0-2.5-0.4-3.4-1.3c-0.8-0.9-1.2-2.1-1.2-3.7c0-1.6,0.4-2.9,1.2-3.8c0.8-0.9,1.9-1.3,3.3-1.3c1.3,0,2.3,0.4,3.2,1.3
			c0.8,0.9,1.2,2.1,1.2,3.7c0,0.1,0,0.2,0,0.4h-7.2c0.1,1.1,0.4,1.9,0.9,2.5c0.5,0.6,1.2,0.8,2,0.8c0.6,0,1.1-0.2,1.5-0.5
			C203.1,489.5,203.4,489,203.7,488.3z M198.3,485.7h5.4c-0.1-0.8-0.3-1.4-0.6-1.8c-0.5-0.6-1.2-1-2-1c-0.8,0-1.4,0.3-1.9,0.8
			C198.6,484.1,198.3,484.8,198.3,485.7z M207.4,491.4v-9.7h1.5v1.5c0.4-0.7,0.7-1.1,1-1.4c0.3-0.2,0.7-0.3,1.1-0.3
			c0.6,0,1.1,0.2,1.7,0.5l-0.6,1.5c-0.4-0.2-0.8-0.4-1.2-0.4c-0.4,0-0.7,0.1-1,0.3s-0.5,0.5-0.6,0.9c-0.2,0.6-0.3,1.2-0.3,1.9v5.1
			H207.4z M213.6,491.4v-13.4h1.6v13.4H213.6z M224.1,490.2c-0.6,0.5-1.2,0.9-1.8,1.1c-0.6,0.2-1.2,0.3-1.8,0.3
			c-1.1,0-1.9-0.3-2.5-0.8c-0.6-0.5-0.9-1.2-0.9-2c0-0.5,0.1-0.9,0.3-1.3c0.2-0.4,0.5-0.7,0.8-0.9c0.4-0.2,0.8-0.4,1.2-0.5
			c0.3-0.1,0.8-0.2,1.5-0.2c1.3-0.2,2.3-0.3,2.9-0.6c0-0.2,0-0.4,0-0.4c0-0.7-0.2-1.1-0.5-1.4c-0.4-0.4-1-0.5-1.9-0.5
			c-0.8,0-1.3,0.1-1.7,0.4c-0.4,0.3-0.6,0.7-0.8,1.4l-1.6-0.2c0.1-0.7,0.4-1.2,0.7-1.6c0.3-0.4,0.8-0.8,1.5-1
			c0.6-0.2,1.4-0.3,2.2-0.3c0.8,0,1.5,0.1,2,0.3c0.5,0.2,0.9,0.4,1.1,0.7c0.2,0.3,0.4,0.7,0.5,1.1c0.1,0.3,0.1,0.8,0.1,1.5v2.2
			c0,1.5,0,2.5,0.1,2.9c0.1,0.4,0.2,0.8,0.4,1.2h-1.7C224.2,491.1,224.1,490.7,224.1,490.2z M224,486.6c-0.6,0.2-1.5,0.5-2.7,0.6
			c-0.7,0.1-1.2,0.2-1.4,0.3s-0.5,0.3-0.7,0.5c-0.1,0.2-0.2,0.5-0.2,0.8c0,0.4,0.2,0.8,0.5,1.1c0.3,0.3,0.8,0.4,1.5,0.4
			c0.6,0,1.2-0.1,1.7-0.4c0.5-0.3,0.9-0.7,1.1-1.1c0.2-0.4,0.3-0.9,0.3-1.6V486.6z M228.2,495.1v-13.4h1.5v1.2
			c0.4-0.5,0.8-0.9,1.2-1.1c0.4-0.2,1-0.4,1.6-0.4c0.8,0,1.5,0.2,2.2,0.6c0.6,0.4,1.1,1,1.4,1.8c0.3,0.8,0.5,1.6,0.5,2.5
			c0,1-0.2,1.9-0.5,2.7c-0.4,0.8-0.9,1.4-1.5,1.8c-0.7,0.4-1.4,0.6-2.1,0.6c-0.5,0-1-0.1-1.5-0.3s-0.8-0.5-1.1-0.9v4.7H228.2z
			 M229.6,486.6c0,1.2,0.2,2.2,0.8,2.8c0.5,0.6,1.1,0.9,1.8,0.9c0.7,0,1.4-0.3,1.9-0.9c0.5-0.6,0.8-1.6,0.8-2.9
			c0-1.2-0.3-2.2-0.8-2.8c-0.5-0.6-1.1-0.9-1.8-0.9c-0.7,0-1.3,0.3-1.9,1C229.9,484.4,229.6,485.4,229.6,486.6z M82.3,510.3l1.7,0.2
			c-0.3,1-0.8,1.8-1.5,2.3c-0.7,0.5-1.6,0.8-2.8,0.8c-1.4,0-2.5-0.4-3.4-1.3c-0.8-0.9-1.2-2.1-1.2-3.7c0-1.6,0.4-2.9,1.2-3.8
			c0.8-0.9,1.9-1.3,3.3-1.3c1.3,0,2.3,0.4,3.2,1.3c0.8,0.9,1.2,2.1,1.2,3.7c0,0.1,0,0.2,0,0.4h-7.2c0.1,1.1,0.4,1.9,0.9,2.5
			c0.5,0.6,1.2,0.8,2,0.8c0.6,0,1.1-0.2,1.5-0.5C81.7,511.5,82.1,511,82.3,510.3z M76.9,507.7h5.4c-0.1-0.8-0.3-1.4-0.6-1.8
			c-0.5-0.6-1.2-1-2-1c-0.8,0-1.4,0.3-1.9,0.8C77.3,506.1,77,506.8,76.9,507.7z M86.1,513.4v-9.7h1.5v1.4c0.7-1.1,1.7-1.6,3.1-1.6
			c0.6,0,1.1,0.1,1.6,0.3c0.5,0.2,0.9,0.5,1.1,0.8c0.2,0.3,0.4,0.7,0.5,1.2c0.1,0.3,0.1,0.8,0.1,1.6v6h-1.6v-5.9
			c0-0.7-0.1-1.2-0.2-1.5c-0.1-0.3-0.3-0.6-0.7-0.8c-0.3-0.2-0.7-0.3-1.1-0.3c-0.7,0-1.3,0.2-1.8,0.7c-0.5,0.4-0.8,1.3-0.8,2.5v5.3
			H86.1z M100,512l0.2,1.5c-0.5,0.1-0.9,0.1-1.2,0.1c-0.6,0-1.1-0.1-1.4-0.3c-0.3-0.2-0.6-0.4-0.7-0.7c-0.1-0.3-0.2-1-0.2-1.9V505
			h-1.2v-1.3h1.2v-2.4l1.6-1v3.4h1.7v1.3h-1.7v5.7c0,0.5,0,0.8,0.1,0.9c0.1,0.1,0.2,0.2,0.3,0.3c0.1,0.1,0.3,0.1,0.6,0.1
			C99.5,512,99.7,512,100,512z M108.3,510.3l1.7,0.2c-0.3,1-0.8,1.8-1.5,2.3c-0.7,0.5-1.6,0.8-2.8,0.8c-1.4,0-2.5-0.4-3.4-1.3
			c-0.8-0.9-1.2-2.1-1.2-3.7c0-1.6,0.4-2.9,1.2-3.8c0.8-0.9,1.9-1.3,3.3-1.3c1.3,0,2.3,0.4,3.2,1.3c0.8,0.9,1.2,2.1,1.2,3.7
			c0,0.1,0,0.2,0,0.4h-7.2c0.1,1.1,0.4,1.9,0.9,2.5c0.5,0.6,1.2,0.8,2,0.8c0.6,0,1.1-0.2,1.5-0.5C107.7,511.5,108,511,108.3,510.3z
			 M102.9,507.7h5.4c-0.1-0.8-0.3-1.4-0.6-1.8c-0.5-0.6-1.2-1-2-1c-0.8,0-1.4,0.3-1.9,0.8C103.2,506.1,102.9,506.8,102.9,507.7z
			 M112,513.4v-9.7h1.5v1.5c0.4-0.7,0.7-1.1,1-1.4c0.3-0.2,0.7-0.3,1.1-0.3c0.6,0,1.1,0.2,1.7,0.5l-0.6,1.5
			c-0.4-0.2-0.8-0.4-1.2-0.4c-0.4,0-0.7,0.1-1,0.3s-0.5,0.5-0.6,0.9c-0.2,0.6-0.3,1.2-0.3,1.9v5.1H112z M117.6,510.5l1.6-0.2
			c0.1,0.6,0.3,1.1,0.8,1.5c0.4,0.3,1,0.5,1.8,0.5s1.3-0.2,1.7-0.5c0.4-0.3,0.5-0.7,0.5-1.1c0-0.4-0.2-0.7-0.5-0.9
			c-0.2-0.1-0.8-0.3-1.7-0.5c-1.2-0.3-2-0.6-2.5-0.8c-0.5-0.2-0.8-0.5-1-0.9c-0.2-0.4-0.4-0.8-0.4-1.3c0-0.4,0.1-0.8,0.3-1.2
			c0.2-0.4,0.5-0.7,0.8-0.9c0.2-0.2,0.6-0.3,1-0.5c0.4-0.1,0.9-0.2,1.4-0.2c0.8,0,1.4,0.1,2,0.3c0.6,0.2,1,0.5,1.3,0.9
			c0.3,0.4,0.5,0.9,0.6,1.5l-1.6,0.2c-0.1-0.5-0.3-0.9-0.6-1.2c-0.3-0.3-0.8-0.4-1.5-0.4c-0.8,0-1.3,0.1-1.6,0.4
			c-0.3,0.2-0.5,0.5-0.5,0.9c0,0.2,0.1,0.4,0.2,0.6c0.1,0.2,0.3,0.3,0.6,0.4c0.2,0.1,0.6,0.2,1.4,0.4c1.2,0.3,2,0.6,2.4,0.8
			c0.5,0.2,0.8,0.5,1.1,0.9c0.3,0.4,0.4,0.8,0.4,1.4c0,0.6-0.2,1.1-0.5,1.5c-0.3,0.5-0.8,0.9-1.4,1.1c-0.6,0.3-1.3,0.4-2,0.4
			c-1.2,0-2.2-0.3-2.9-0.8C118.2,512.3,117.8,511.6,117.6,510.5z M136.3,512l0.2,1.5c-0.5,0.1-0.9,0.1-1.2,0.1
			c-0.6,0-1.1-0.1-1.4-0.3c-0.3-0.2-0.6-0.4-0.7-0.7c-0.1-0.3-0.2-1-0.2-1.9V505h-1.2v-1.3h1.2v-2.4l1.6-1v3.4h1.7v1.3h-1.7v5.7
			c0,0.5,0,0.8,0.1,0.9c0.1,0.1,0.2,0.2,0.3,0.3c0.1,0.1,0.3,0.1,0.6,0.1C135.8,512,136,512,136.3,512z M137.9,513.4v-13.4h1.6v4.8
			c0.8-0.9,1.7-1.3,2.9-1.3c0.7,0,1.3,0.1,1.9,0.4c0.5,0.3,0.9,0.7,1.1,1.2s0.3,1.2,0.3,2.2v6.1h-1.6v-6.1c0-0.8-0.2-1.4-0.5-1.8
			s-0.9-0.6-1.5-0.6c-0.5,0-0.9,0.1-1.4,0.4c-0.4,0.2-0.7,0.6-0.9,1c-0.2,0.4-0.3,1-0.3,1.8v5.3H137.9z M154.9,510.3l1.7,0.2
			c-0.3,1-0.8,1.8-1.5,2.3c-0.7,0.5-1.6,0.8-2.8,0.8c-1.4,0-2.5-0.4-3.4-1.3c-0.8-0.9-1.2-2.1-1.2-3.7c0-1.6,0.4-2.9,1.2-3.8
			c0.8-0.9,1.9-1.3,3.3-1.3c1.3,0,2.3,0.4,3.2,1.3c0.8,0.9,1.2,2.1,1.2,3.7c0,0.1,0,0.2,0,0.4h-7.2c0.1,1.1,0.4,1.9,0.9,2.5
			c0.5,0.6,1.2,0.8,2,0.8c0.6,0,1.1-0.2,1.5-0.5C154.3,511.5,154.7,511,154.9,510.3z M149.5,507.7h5.4c-0.1-0.8-0.3-1.4-0.6-1.8
			c-0.5-0.6-1.2-1-2-1c-0.8,0-1.4,0.3-1.9,0.8C149.9,506.1,149.6,506.8,149.5,507.7z M164.1,513.4v-13.4h5c0.9,0,1.6,0,2,0.1
			c0.6,0.1,1.2,0.3,1.6,0.6c0.4,0.3,0.8,0.7,1.1,1.3c0.3,0.6,0.4,1.2,0.4,1.8c0,1.1-0.4,2.1-1.1,2.9c-0.7,0.8-2,1.2-3.9,1.2h-3.4
			v5.4H164.1z M165.8,506.4h3.5c1.1,0,2-0.2,2.4-0.6c0.5-0.4,0.7-1,0.7-1.8c0-0.6-0.1-1-0.4-1.4s-0.7-0.7-1.1-0.8
			c-0.3-0.1-0.8-0.1-1.6-0.1h-3.4V506.4z M176,506.9c0-2.2,0.6-4,1.8-5.2c1.2-1.3,2.7-1.9,4.6-1.9c1.2,0,2.3,0.3,3.3,0.9
			c1,0.6,1.7,1.4,2.3,2.5c0.5,1.1,0.8,2.2,0.8,3.6c0,1.4-0.3,2.6-0.8,3.6c-0.5,1.1-1.3,1.9-2.3,2.4s-2.1,0.8-3.2,0.8
			c-1.2,0-2.4-0.3-3.4-0.9c-1-0.6-1.7-1.4-2.2-2.5S176,508.1,176,506.9z M177.8,506.9c0,1.6,0.4,2.9,1.3,3.8s2,1.4,3.3,1.4
			c1.3,0,2.4-0.5,3.3-1.4s1.3-2.3,1.3-4c0-1.1-0.2-2-0.5-2.8s-0.9-1.4-1.6-1.9c-0.7-0.4-1.5-0.7-2.4-0.7c-1.3,0-2.3,0.4-3.2,1.3
			C178.2,503.5,177.8,504.9,177.8,506.9z M189.6,513.4l5.1-13.4h1.9l5.5,13.4h-2l-1.5-4h-5.6l-1.5,4H189.6z M193.4,507.9h4.5
			l-1.4-3.7c-0.4-1.1-0.7-2-0.9-2.8c-0.2,0.9-0.4,1.7-0.7,2.5L193.4,507.9z M75.8,70.7V57.3h2.7v13.4H75.8z M89.8,70.7h-2.6v-4.9
			c0-1-0.1-1.7-0.2-2c-0.1-0.3-0.3-0.6-0.5-0.7c-0.2-0.2-0.5-0.3-0.9-0.3c-0.4,0-0.8,0.1-1.2,0.4c-0.4,0.2-0.6,0.6-0.7,1
			c-0.1,0.4-0.2,1.1-0.2,2.2v4.4H81V61h2.4v1.4c0.8-1.1,1.9-1.6,3.2-1.6c0.6,0,1.1,0.1,1.5,0.3c0.5,0.2,0.8,0.5,1.1,0.8
			c0.2,0.3,0.4,0.7,0.5,1.1c0.1,0.4,0.1,1,0.1,1.7V70.7z M92.3,61h2.4v1.4c0.3-0.5,0.7-0.9,1.2-1.2c0.5-0.3,1.1-0.5,1.8-0.5
			c1.1,0,2.1,0.4,2.9,1.3c0.8,0.9,1.2,2.1,1.2,3.7c0,1.6-0.4,2.9-1.2,3.8c-0.8,0.9-1.7,1.3-2.9,1.3c-0.5,0-1-0.1-1.5-0.3
			c-0.4-0.2-0.9-0.6-1.4-1.1v4.9h-2.6V61z M94.9,65.7c0,1.1,0.2,1.9,0.6,2.4c0.4,0.5,1,0.8,1.6,0.8c0.6,0,1.1-0.2,1.5-0.7
			c0.4-0.5,0.6-1.3,0.6-2.3c0-1-0.2-1.8-0.6-2.2c-0.4-0.5-0.9-0.8-1.5-0.8c-0.6,0-1.1,0.2-1.6,0.7C95.1,64,94.9,64.8,94.9,65.7z
			 M110.2,70.7v-1.5c-0.4,0.5-0.8,0.9-1.4,1.2c-0.6,0.3-1.2,0.4-1.8,0.4c-0.6,0-1.2-0.1-1.8-0.4c-0.5-0.3-0.9-0.7-1.1-1.2
			c-0.2-0.5-0.3-1.2-0.3-2.1V61h2.6v4.4c0,1.4,0,2.2,0.1,2.5c0.1,0.3,0.3,0.5,0.5,0.7c0.2,0.2,0.6,0.3,1,0.3c0.4,0,0.8-0.1,1.2-0.4
			c0.3-0.2,0.6-0.5,0.7-0.9c0.1-0.4,0.2-1.2,0.2-2.6V61h2.5v9.7H110.2z M119.6,61v2h-1.8V67c0,0.8,0,1.3,0,1.4
			c0,0.1,0.1,0.2,0.2,0.3c0.1,0.1,0.3,0.1,0.4,0.1c0.2,0,0.6-0.1,1-0.2l0.2,2c-0.6,0.2-1.3,0.4-2,0.4c-0.5,0-0.9-0.1-1.3-0.2
			c-0.4-0.2-0.6-0.4-0.8-0.6c-0.2-0.2-0.3-0.6-0.3-1c-0.1-0.3-0.1-0.9-0.1-1.8v-4.2h-1.2v-2h1.2v-1.9l2.6-1.5V61H119.6z M132.8,65.8
			v-2.2h5.8v5.3c-0.6,0.6-1.4,1-2.5,1.5c-1.1,0.4-2.2,0.6-3.2,0.6c-1.4,0-2.6-0.3-3.7-0.9c-1-0.6-1.8-1.4-2.3-2.5
			c-0.5-1.1-0.8-2.3-0.8-3.6c0-1.4,0.3-2.6,0.9-3.7c0.6-1.1,1.4-1.9,2.6-2.5c0.9-0.4,1.9-0.7,3.2-0.7c1.7,0,2.9,0.3,3.9,1
			c0.9,0.7,1.5,1.6,1.8,2.9l-2.7,0.5c-0.2-0.7-0.5-1.2-1.1-1.5c-0.5-0.4-1.2-0.6-1.9-0.6c-1.2,0-2.1,0.4-2.8,1.1
			c-0.7,0.8-1,1.9-1,3.3c0,1.6,0.3,2.8,1,3.6c0.7,0.8,1.6,1.2,2.8,1.2c0.6,0,1.1-0.1,1.7-0.3c0.6-0.2,1.1-0.5,1.5-0.8v-1.7H132.8z
			 M141.1,70.7V57.3h9.2v2.3h-6.5v3.2h5.6V65h-5.6v5.7H141.1z M163.5,70.7h-2.9l-1.2-3h-5.3l-1.1,3h-2.9l5.2-13.4h2.8L163.5,70.7z
			 M158.6,65.4l-1.8-5l-1.8,5H158.6z M75.4,86.2c0-2.2,0.6-4,1.8-5.2c1.2-1.3,2.7-1.9,4.6-1.9c1.2,0,2.3,0.3,3.3,0.9
			c1,0.6,1.7,1.4,2.3,2.5c0.5,1.1,0.8,2.2,0.8,3.6c0,1.4-0.3,2.6-0.8,3.6c-0.5,1.1-1.3,1.9-2.3,2.4c-1,0.6-2.1,0.8-3.2,0.8
			c-1.2,0-2.4-0.3-3.4-0.9c-1-0.6-1.7-1.4-2.2-2.5C75.6,88.5,75.4,87.4,75.4,86.2z M77.2,86.2c0,1.6,0.4,2.9,1.3,3.8
			c0.9,0.9,2,1.4,3.3,1.4c1.3,0,2.4-0.5,3.3-1.4s1.3-2.3,1.3-4c0-1.1-0.2-2-0.5-2.8s-0.9-1.4-1.6-1.9c-0.7-0.4-1.5-0.7-2.4-0.7
			c-1.3,0-2.3,0.4-3.2,1.3C77.6,82.8,77.2,84.2,77.2,86.2z M92.9,92.7L89.2,83H91l2.1,5.8c0.2,0.6,0.4,1.3,0.6,1.9
			c0.1-0.5,0.3-1.1,0.6-1.8l2.1-5.9h1.7l-3.7,9.7H92.9z M106.2,89.6l1.7,0.2c-0.3,1-0.8,1.8-1.5,2.3c-0.7,0.5-1.6,0.8-2.8,0.8
			c-1.4,0-2.5-0.4-3.4-1.3C99.4,90.8,99,89.5,99,88c0-1.6,0.4-2.9,1.2-3.8c0.8-0.9,1.9-1.3,3.3-1.3c1.3,0,2.3,0.4,3.2,1.3
			c0.8,0.9,1.2,2.1,1.2,3.7c0,0.1,0,0.2,0,0.4h-7.2c0.1,1.1,0.4,1.9,0.9,2.5c0.5,0.6,1.2,0.8,2,0.8c0.6,0,1.1-0.2,1.5-0.5
			C105.6,90.8,105.9,90.3,106.2,89.6z M100.8,86.9h5.4c-0.1-0.8-0.3-1.4-0.6-1.8c-0.5-0.6-1.2-1-2-1c-0.8,0-1.4,0.3-1.9,0.8
			C101.1,85.4,100.8,86.1,100.8,86.9z M109.9,92.7V83h1.5v1.5c0.4-0.7,0.7-1.1,1-1.4c0.3-0.2,0.7-0.3,1.1-0.3c0.6,0,1.1,0.2,1.7,0.5
			l-0.6,1.5c-0.4-0.2-0.8-0.4-1.2-0.4c-0.4,0-0.7,0.1-1,0.3s-0.5,0.5-0.6,0.9c-0.2,0.6-0.3,1.2-0.3,1.9v5.1H109.9z M116.1,92.7V79.3
			h1.6v13.4H116.1z M126.6,91.5c-0.6,0.5-1.2,0.9-1.8,1.1c-0.6,0.2-1.2,0.3-1.8,0.3c-1.1,0-1.9-0.3-2.5-0.8c-0.6-0.5-0.9-1.2-0.9-2
			c0-0.5,0.1-0.9,0.3-1.3c0.2-0.4,0.5-0.7,0.8-0.9c0.4-0.2,0.8-0.4,1.2-0.5c0.3-0.1,0.8-0.2,1.5-0.2c1.3-0.2,2.3-0.3,2.9-0.6
			c0-0.2,0-0.4,0-0.4c0-0.7-0.2-1.1-0.5-1.4c-0.4-0.4-1-0.5-1.9-0.5c-0.8,0-1.3,0.1-1.7,0.4c-0.4,0.3-0.6,0.7-0.8,1.4l-1.6-0.2
			c0.1-0.7,0.4-1.2,0.7-1.6c0.3-0.4,0.8-0.8,1.5-1c0.6-0.2,1.4-0.3,2.2-0.3c0.8,0,1.5,0.1,2,0.3c0.5,0.2,0.9,0.4,1.1,0.7
			c0.2,0.3,0.4,0.7,0.5,1.1c0.1,0.3,0.1,0.8,0.1,1.5v2.2c0,1.5,0,2.5,0.1,2.9c0.1,0.4,0.2,0.8,0.4,1.2h-1.7
			C126.7,92.4,126.6,92,126.6,91.5z M126.5,87.8c-0.6,0.2-1.5,0.5-2.7,0.6c-0.7,0.1-1.2,0.2-1.4,0.3s-0.5,0.3-0.7,0.5
			c-0.1,0.2-0.2,0.5-0.2,0.8c0,0.4,0.2,0.8,0.5,1.1c0.3,0.3,0.8,0.4,1.5,0.4c0.6,0,1.2-0.1,1.7-0.4c0.5-0.3,0.9-0.7,1.1-1.1
			c0.2-0.4,0.3-0.9,0.3-1.6V87.8z M130.7,96.4V83h1.5v1.2c0.4-0.5,0.8-0.9,1.2-1.1c0.4-0.2,1-0.4,1.6-0.4c0.8,0,1.5,0.2,2.2,0.6
			c0.6,0.4,1.1,1,1.4,1.8c0.3,0.8,0.5,1.6,0.5,2.5c0,1-0.2,1.9-0.5,2.7c-0.4,0.8-0.9,1.4-1.5,1.8c-0.7,0.4-1.4,0.6-2.1,0.6
			c-0.5,0-1-0.1-1.5-0.3c-0.4-0.2-0.8-0.5-1.1-0.9v4.7H130.7z M132.1,87.9c0,1.2,0.2,2.2,0.8,2.8c0.5,0.6,1.1,0.9,1.8,0.9
			c0.7,0,1.4-0.3,1.9-0.9c0.5-0.6,0.8-1.6,0.8-2.9c0-1.2-0.3-2.2-0.8-2.8c-0.5-0.6-1.1-0.9-1.8-0.9c-0.7,0-1.3,0.3-1.9,1
			C132.4,85.7,132.1,86.7,132.1,87.9z M140.4,89.8l1.6-0.2c0.1,0.6,0.3,1.1,0.8,1.5c0.4,0.3,1,0.5,1.8,0.5s1.3-0.2,1.7-0.5
			c0.4-0.3,0.5-0.7,0.5-1.1c0-0.4-0.2-0.7-0.5-0.9c-0.2-0.1-0.8-0.3-1.7-0.5c-1.2-0.3-2-0.6-2.5-0.8c-0.5-0.2-0.8-0.5-1-0.9
			c-0.2-0.4-0.4-0.8-0.4-1.3c0-0.4,0.1-0.8,0.3-1.2c0.2-0.4,0.5-0.7,0.8-0.9c0.2-0.2,0.6-0.3,1-0.5c0.4-0.1,0.9-0.2,1.4-0.2
			c0.8,0,1.4,0.1,2,0.3s1,0.5,1.3,0.9c0.3,0.4,0.5,0.9,0.6,1.5l-1.6,0.2c-0.1-0.5-0.3-0.9-0.6-1.2c-0.3-0.3-0.8-0.4-1.5-0.4
			c-0.8,0-1.3,0.1-1.6,0.4c-0.3,0.2-0.5,0.5-0.5,0.9c0,0.2,0.1,0.4,0.2,0.6c0.1,0.2,0.3,0.3,0.6,0.4c0.2,0.1,0.6,0.2,1.4,0.4
			c1.2,0.3,2,0.6,2.4,0.8c0.5,0.2,0.8,0.5,1.1,0.9s0.4,0.8,0.4,1.4c0,0.6-0.2,1.1-0.5,1.5c-0.3,0.5-0.8,0.9-1.4,1.1
			c-0.6,0.3-1.3,0.4-2,0.4c-1.2,0-2.2-0.3-2.9-0.8C141,91.6,140.6,90.8,140.4,89.8z M161.9,91.5c-0.6,0.5-1.2,0.9-1.8,1.1
			c-0.6,0.2-1.2,0.3-1.8,0.3c-1.1,0-1.9-0.3-2.5-0.8c-0.6-0.5-0.9-1.2-0.9-2c0-0.5,0.1-0.9,0.3-1.3c0.2-0.4,0.5-0.7,0.8-0.9
			c0.4-0.2,0.8-0.4,1.2-0.5c0.3-0.1,0.8-0.2,1.5-0.2c1.3-0.2,2.3-0.3,2.9-0.6c0-0.2,0-0.4,0-0.4c0-0.7-0.2-1.1-0.5-1.4
			c-0.4-0.4-1-0.5-1.9-0.5c-0.8,0-1.3,0.1-1.7,0.4c-0.4,0.3-0.6,0.7-0.8,1.4l-1.6-0.2c0.1-0.7,0.4-1.2,0.7-1.6
			c0.3-0.4,0.8-0.8,1.5-1c0.6-0.2,1.4-0.3,2.2-0.3c0.8,0,1.5,0.1,2,0.3c0.5,0.2,0.9,0.4,1.1,0.7c0.2,0.3,0.4,0.7,0.5,1.1
			c0.1,0.3,0.1,0.8,0.1,1.5v2.2c0,1.5,0,2.5,0.1,2.9c0.1,0.4,0.2,0.8,0.4,1.2h-1.7C162,92.4,161.9,92,161.9,91.5z M161.7,87.8
			c-0.6,0.2-1.5,0.5-2.7,0.6c-0.7,0.1-1.2,0.2-1.4,0.3s-0.5,0.3-0.7,0.5c-0.1,0.2-0.2,0.5-0.2,0.8c0,0.4,0.2,0.8,0.5,1.1
			c0.3,0.3,0.8,0.4,1.5,0.4c0.6,0,1.2-0.1,1.7-0.4c0.5-0.3,0.9-0.7,1.1-1.1c0.2-0.4,0.3-0.9,0.3-1.6V87.8z M165.9,92.7V83h1.5v1.5
			c0.4-0.7,0.7-1.1,1-1.4c0.3-0.2,0.7-0.3,1.1-0.3c0.6,0,1.1,0.2,1.7,0.5l-0.6,1.5c-0.4-0.2-0.8-0.4-1.2-0.4c-0.4,0-0.7,0.1-1,0.3
			s-0.5,0.5-0.6,0.9c-0.2,0.6-0.3,1.2-0.3,1.9v5.1H165.9z M178.8,89.6l1.7,0.2c-0.3,1-0.8,1.8-1.5,2.3c-0.7,0.5-1.6,0.8-2.8,0.8
			c-1.4,0-2.5-0.4-3.4-1.3c-0.8-0.9-1.2-2.1-1.2-3.7c0-1.6,0.4-2.9,1.2-3.8c0.8-0.9,1.9-1.3,3.3-1.3c1.3,0,2.3,0.4,3.2,1.3
			c0.8,0.9,1.2,2.1,1.2,3.7c0,0.1,0,0.2,0,0.4h-7.2c0.1,1.1,0.4,1.9,0.9,2.5c0.5,0.6,1.2,0.8,2,0.8c0.6,0,1.1-0.2,1.5-0.5
			C178.2,90.8,178.5,90.3,178.8,89.6z M173.4,86.9h5.4c-0.1-0.8-0.3-1.4-0.6-1.8c-0.5-0.6-1.2-1-2-1c-0.8,0-1.4,0.3-1.9,0.8
			C173.7,85.4,173.4,86.1,173.4,86.9z M194,92.7v-1.2c-0.6,1-1.5,1.4-2.7,1.4c-0.8,0-1.5-0.2-2.1-0.6c-0.6-0.4-1.1-1-1.5-1.8
			c-0.4-0.8-0.5-1.6-0.5-2.6c0-1,0.2-1.8,0.5-2.6c0.3-0.8,0.8-1.4,1.4-1.8c0.6-0.4,1.4-0.6,2.2-0.6c0.6,0,1.1,0.1,1.5,0.4
			c0.5,0.2,0.8,0.6,1.1,1v-4.8h1.6v13.4H194z M188.8,87.9c0,1.2,0.3,2.2,0.8,2.8c0.5,0.6,1.1,0.9,1.8,0.9c0.7,0,1.3-0.3,1.8-0.9
			c0.5-0.6,0.8-1.5,0.8-2.7c0-1.3-0.3-2.3-0.8-2.9c-0.5-0.6-1.1-0.9-1.9-0.9c-0.7,0-1.3,0.3-1.8,0.9C189,85.7,188.8,86.6,188.8,87.9
			z M204.7,89.6l1.7,0.2c-0.3,1-0.8,1.8-1.5,2.3c-0.7,0.5-1.6,0.8-2.8,0.8c-1.4,0-2.5-0.4-3.4-1.3c-0.8-0.9-1.2-2.1-1.2-3.7
			c0-1.6,0.4-2.9,1.2-3.8c0.8-0.9,1.9-1.3,3.3-1.3c1.3,0,2.3,0.4,3.2,1.3c0.8,0.9,1.2,2.1,1.2,3.7c0,0.1,0,0.2,0,0.4h-7.2
			c0.1,1.1,0.4,1.9,0.9,2.5c0.5,0.6,1.2,0.8,2,0.8c0.6,0,1.1-0.2,1.5-0.5C204.1,90.8,204.4,90.3,204.7,89.6z M199.3,86.9h5.4
			c-0.1-0.8-0.3-1.4-0.6-1.8c-0.5-0.6-1.2-1-2-1c-0.8,0-1.4,0.3-1.9,0.8C199.6,85.4,199.4,86.1,199.3,86.9z M207.8,89.8l1.6-0.2
			c0.1,0.6,0.3,1.1,0.8,1.5c0.4,0.3,1,0.5,1.8,0.5s1.3-0.2,1.7-0.5c0.4-0.3,0.5-0.7,0.5-1.1c0-0.4-0.2-0.7-0.5-0.9
			c-0.2-0.1-0.8-0.3-1.7-0.5c-1.2-0.3-2-0.6-2.5-0.8c-0.5-0.2-0.8-0.5-1-0.9c-0.2-0.4-0.4-0.8-0.4-1.3c0-0.4,0.1-0.8,0.3-1.2
			c0.2-0.4,0.5-0.7,0.8-0.9c0.2-0.2,0.6-0.3,1-0.5c0.4-0.1,0.9-0.2,1.4-0.2c0.8,0,1.4,0.1,2,0.3s1,0.5,1.3,0.9
			c0.3,0.4,0.5,0.9,0.6,1.5l-1.6,0.2c-0.1-0.5-0.3-0.9-0.6-1.2c-0.3-0.3-0.8-0.4-1.5-0.4c-0.8,0-1.3,0.1-1.6,0.4
			c-0.3,0.2-0.5,0.5-0.5,0.9c0,0.2,0.1,0.4,0.2,0.6c0.1,0.2,0.3,0.3,0.6,0.4c0.2,0.1,0.6,0.2,1.4,0.4c1.2,0.3,2,0.6,2.4,0.8
			c0.5,0.2,0.8,0.5,1.1,0.9s0.4,0.8,0.4,1.4c0,0.6-0.2,1.1-0.5,1.5c-0.3,0.5-0.8,0.9-1.4,1.1c-0.6,0.3-1.3,0.4-2,0.4
			c-1.2,0-2.2-0.3-2.9-0.8C208.4,91.6,208,90.8,207.8,89.8z M224.1,89.2l1.6,0.2c-0.2,1.1-0.6,2-1.4,2.6c-0.7,0.6-1.6,0.9-2.7,0.9
			c-1.3,0-2.4-0.4-3.2-1.3c-0.8-0.9-1.2-2.1-1.2-3.7c0-1.1,0.2-2,0.5-2.8s0.9-1.4,1.6-1.8c0.7-0.4,1.5-0.6,2.3-0.6
			c1.1,0,1.9,0.3,2.6,0.8s1.1,1.3,1.3,2.3l-1.6,0.2c-0.2-0.6-0.4-1.1-0.8-1.5c-0.4-0.3-0.8-0.5-1.4-0.5c-0.8,0-1.5,0.3-2,0.9
			s-0.8,1.5-0.8,2.8c0,1.3,0.2,2.2,0.8,2.8c0.5,0.6,1.2,0.9,2,0.9c0.6,0,1.2-0.2,1.6-0.6C223.7,90.6,224,90,224.1,89.2z M227.1,92.7
			V83h1.5v1.5c0.4-0.7,0.7-1.1,1-1.4c0.3-0.2,0.7-0.3,1.1-0.3c0.6,0,1.1,0.2,1.7,0.5l-0.6,1.5c-0.4-0.2-0.8-0.4-1.2-0.4
			c-0.4,0-0.7,0.1-1,0.3s-0.5,0.5-0.6,0.9c-0.2,0.6-0.3,1.2-0.3,1.9v5.1H227.1z M233.3,81.2v-1.9h1.6v1.9H233.3z M233.3,92.7V83h1.6
			v9.7H233.3z M239,92.7h-1.5V79.3h1.6v4.8c0.7-0.9,1.6-1.3,2.7-1.3c0.6,0,1.2,0.1,1.7,0.4c0.5,0.2,1,0.6,1.3,1
			c0.3,0.4,0.6,0.9,0.8,1.6c0.2,0.6,0.3,1.3,0.3,2c0,1.7-0.4,2.9-1.2,3.8c-0.8,0.9-1.8,1.4-3,1.4c-1.1,0-2-0.5-2.7-1.4V92.7z
			 M238.9,87.8c0,1.2,0.2,2,0.5,2.5c0.5,0.8,1.2,1.3,2.1,1.3c0.7,0,1.3-0.3,1.9-0.9c0.5-0.6,0.8-1.6,0.8-2.8c0-1.3-0.2-2.2-0.8-2.8
			c-0.5-0.6-1.1-0.9-1.8-0.9c-0.7,0-1.3,0.3-1.9,0.9C239.2,85.7,238.9,86.6,238.9,87.8z M254.5,89.6l1.7,0.2c-0.3,1-0.8,1.8-1.5,2.3
			c-0.7,0.5-1.6,0.8-2.8,0.8c-1.4,0-2.5-0.4-3.4-1.3c-0.8-0.9-1.2-2.1-1.2-3.7c0-1.6,0.4-2.9,1.2-3.8c0.8-0.9,1.9-1.3,3.3-1.3
			c1.3,0,2.3,0.4,3.2,1.3c0.8,0.9,1.2,2.1,1.2,3.7c0,0.1,0,0.2,0,0.4H249c0.1,1.1,0.4,1.9,0.9,2.5c0.5,0.6,1.2,0.8,2,0.8
			c0.6,0,1.1-0.2,1.5-0.5C253.9,90.8,254.2,90.3,254.5,89.6z M249.1,86.9h5.4c-0.1-0.8-0.3-1.4-0.6-1.8c-0.5-0.6-1.2-1-2-1
			c-0.8,0-1.4,0.3-1.9,0.8C249.4,85.4,249.1,86.1,249.1,86.9z M264.5,92.7v-1.2c-0.6,1-1.5,1.4-2.7,1.4c-0.8,0-1.5-0.2-2.1-0.6
			c-0.6-0.4-1.1-1-1.5-1.8c-0.4-0.8-0.5-1.6-0.5-2.6c0-1,0.2-1.8,0.5-2.6c0.3-0.8,0.8-1.4,1.4-1.8c0.6-0.4,1.4-0.6,2.2-0.6
			c0.6,0,1.1,0.1,1.5,0.4c0.5,0.2,0.8,0.6,1.1,1v-4.8h1.6v13.4H264.5z M259.3,87.9c0,1.2,0.3,2.2,0.8,2.8c0.5,0.6,1.1,0.9,1.8,0.9
			c0.7,0,1.3-0.3,1.8-0.9c0.5-0.6,0.8-1.5,0.8-2.7c0-1.3-0.3-2.3-0.8-2.9c-0.5-0.6-1.1-0.9-1.9-0.9c-0.7,0-1.3,0.3-1.8,0.9
			C259.5,85.7,259.3,86.6,259.3,87.9z M82,113.5c-0.6,0.5-1.2,0.9-1.8,1.1c-0.6,0.2-1.2,0.3-1.8,0.3c-1.1,0-1.9-0.3-2.5-0.8
			c-0.6-0.5-0.9-1.2-0.9-2c0-0.5,0.1-0.9,0.3-1.3c0.2-0.4,0.5-0.7,0.8-0.9c0.4-0.2,0.8-0.4,1.2-0.5c0.3-0.1,0.8-0.2,1.5-0.2
			c1.3-0.2,2.3-0.3,2.9-0.6c0-0.2,0-0.4,0-0.4c0-0.7-0.2-1.1-0.5-1.4c-0.4-0.4-1-0.5-1.9-0.5c-0.8,0-1.3,0.1-1.7,0.4
			c-0.4,0.3-0.6,0.7-0.8,1.4l-1.6-0.2c0.1-0.7,0.4-1.2,0.7-1.6c0.3-0.4,0.8-0.8,1.5-1c0.6-0.2,1.4-0.3,2.2-0.3c0.8,0,1.5,0.1,2,0.3
			c0.5,0.2,0.9,0.4,1.1,0.7c0.2,0.3,0.4,0.7,0.5,1.1c0.1,0.3,0.1,0.8,0.1,1.5v2.2c0,1.5,0,2.5,0.1,2.9c0.1,0.4,0.2,0.8,0.4,1.2h-1.7
			C82.2,114.4,82.1,114,82,113.5z M81.9,109.8c-0.6,0.2-1.5,0.5-2.7,0.6c-0.7,0.1-1.2,0.2-1.4,0.3s-0.5,0.3-0.7,0.5
			c-0.1,0.2-0.2,0.5-0.2,0.8c0,0.4,0.2,0.8,0.5,1.1c0.3,0.3,0.8,0.4,1.5,0.4c0.6,0,1.2-0.1,1.7-0.4c0.5-0.3,0.9-0.7,1.1-1.1
			c0.2-0.4,0.3-0.9,0.3-1.6V109.8z M85.4,111.8l1.6-0.2c0.1,0.6,0.3,1.1,0.8,1.5c0.4,0.3,1,0.5,1.8,0.5s1.3-0.2,1.7-0.5
			c0.4-0.3,0.5-0.7,0.5-1.1c0-0.4-0.2-0.7-0.5-0.9c-0.2-0.1-0.8-0.3-1.7-0.5c-1.2-0.3-2-0.6-2.5-0.8c-0.5-0.2-0.8-0.5-1-0.9
			c-0.2-0.4-0.4-0.8-0.4-1.3c0-0.4,0.1-0.8,0.3-1.2c0.2-0.4,0.5-0.7,0.8-0.9c0.2-0.2,0.6-0.3,1-0.5c0.4-0.1,0.9-0.2,1.4-0.2
			c0.8,0,1.4,0.1,2,0.3c0.6,0.2,1,0.5,1.3,0.9c0.3,0.4,0.5,0.9,0.6,1.5l-1.6,0.2c-0.1-0.5-0.3-0.9-0.6-1.2c-0.3-0.3-0.8-0.4-1.5-0.4
			c-0.8,0-1.3,0.1-1.6,0.4c-0.3,0.2-0.5,0.5-0.5,0.9c0,0.2,0.1,0.4,0.2,0.6c0.1,0.2,0.3,0.3,0.6,0.4c0.2,0.1,0.6,0.2,1.4,0.4
			c1.2,0.3,2,0.6,2.4,0.8c0.5,0.2,0.8,0.5,1.1,0.9c0.3,0.4,0.4,0.8,0.4,1.4c0,0.6-0.2,1.1-0.5,1.5c-0.3,0.5-0.8,0.9-1.4,1.1
			c-0.6,0.3-1.3,0.4-2,0.4c-1.2,0-2.2-0.3-2.9-0.8C86,113.6,85.6,112.8,85.4,111.8z M106.9,113.5c-0.6,0.5-1.2,0.9-1.8,1.1
			c-0.6,0.2-1.2,0.3-1.8,0.3c-1.1,0-1.9-0.3-2.5-0.8c-0.6-0.5-0.9-1.2-0.9-2c0-0.5,0.1-0.9,0.3-1.3c0.2-0.4,0.5-0.7,0.8-0.9
			c0.4-0.2,0.8-0.4,1.2-0.5c0.3-0.1,0.8-0.2,1.5-0.2c1.3-0.2,2.3-0.3,2.9-0.6c0-0.2,0-0.4,0-0.4c0-0.7-0.2-1.1-0.5-1.4
			c-0.4-0.4-1-0.5-1.9-0.5c-0.8,0-1.3,0.1-1.7,0.4c-0.4,0.3-0.6,0.7-0.8,1.4l-1.6-0.2c0.1-0.7,0.4-1.2,0.7-1.6
			c0.3-0.4,0.8-0.8,1.5-1c0.6-0.2,1.4-0.3,2.2-0.3c0.8,0,1.5,0.1,2,0.3c0.5,0.2,0.9,0.4,1.1,0.7c0.2,0.3,0.4,0.7,0.5,1.1
			c0.1,0.3,0.1,0.8,0.1,1.5v2.2c0,1.5,0,2.5,0.1,2.9c0.1,0.4,0.2,0.8,0.4,1.2h-1.7C107.1,114.4,107,114,106.9,113.5z M106.8,109.8
			c-0.6,0.2-1.5,0.5-2.7,0.6c-0.7,0.1-1.2,0.2-1.4,0.3s-0.5,0.3-0.7,0.5c-0.1,0.2-0.2,0.5-0.2,0.8c0,0.4,0.2,0.8,0.5,1.1
			c0.3,0.3,0.8,0.4,1.5,0.4c0.6,0,1.2-0.1,1.7-0.4c0.5-0.3,0.9-0.7,1.1-1.1c0.2-0.4,0.3-0.9,0.3-1.6V109.8z M110.9,114.7v-13.4h1.6
			v13.4H110.9z M115.1,103.2v-1.9h1.6v1.9H115.1z M115.1,114.7V105h1.6v9.7H115.1z M118.9,115.5l1.6,0.2c0.1,0.5,0.3,0.9,0.6,1.1
			c0.4,0.3,1,0.5,1.7,0.5c0.8,0,1.3-0.2,1.8-0.5c0.4-0.3,0.7-0.7,0.8-1.3c0.1-0.3,0.1-1,0.1-2.1c-0.7,0.8-1.6,1.3-2.7,1.3
			c-1.3,0-2.4-0.5-3.1-1.4c-0.7-1-1.1-2.1-1.1-3.5c0-0.9,0.2-1.8,0.5-2.6c0.3-0.8,0.8-1.4,1.5-1.8c0.6-0.4,1.4-0.6,2.2-0.6
			c1.1,0,2.1,0.5,2.8,1.4V105h1.5v8.4c0,1.5-0.2,2.6-0.5,3.2c-0.3,0.6-0.8,1.1-1.5,1.5c-0.7,0.4-1.5,0.5-2.5,0.5
			c-1.1,0-2.1-0.3-2.8-0.8C119.3,117.3,118.9,116.6,118.9,115.5z M120.3,109.7c0,1.3,0.2,2.2,0.8,2.8c0.5,0.6,1.1,0.9,1.9,0.9
			c0.8,0,1.4-0.3,1.9-0.9c0.5-0.6,0.8-1.5,0.8-2.7c0-1.2-0.3-2.1-0.8-2.7c-0.5-0.6-1.2-0.9-1.9-0.9c-0.7,0-1.3,0.3-1.9,0.9
			C120.6,107.6,120.3,108.5,120.3,109.7z M129.6,114.7V105h1.5v1.4c0.7-1.1,1.7-1.6,3.1-1.6c0.6,0,1.1,0.1,1.6,0.3
			c0.5,0.2,0.9,0.5,1.1,0.8c0.2,0.3,0.4,0.7,0.5,1.2c0.1,0.3,0.1,0.8,0.1,1.6v6h-1.6v-5.9c0-0.7-0.1-1.2-0.2-1.5
			c-0.1-0.3-0.3-0.6-0.7-0.8c-0.3-0.2-0.7-0.3-1.1-0.3c-0.7,0-1.3,0.2-1.8,0.7c-0.5,0.4-0.8,1.3-0.8,2.5v5.3H129.6z M140,114.7V105
			h1.5v1.4c0.3-0.5,0.7-0.9,1.2-1.1c0.5-0.3,1.1-0.4,1.7-0.4c0.7,0,1.3,0.2,1.8,0.5c0.5,0.3,0.8,0.7,1,1.2c0.8-1.1,1.8-1.7,3-1.7
			c1,0,1.7,0.3,2.2,0.8c0.5,0.5,0.8,1.3,0.8,2.5v6.6h-1.6v-6.1c0-0.7-0.1-1.1-0.2-1.4c-0.1-0.3-0.3-0.5-0.6-0.7
			c-0.3-0.2-0.6-0.3-1-0.3c-0.7,0-1.2,0.2-1.7,0.7c-0.4,0.4-0.7,1.2-0.7,2.2v5.6h-1.6v-6.3c0-0.7-0.1-1.3-0.4-1.6
			c-0.3-0.4-0.7-0.5-1.3-0.5c-0.5,0-0.9,0.1-1.3,0.4c-0.4,0.2-0.7,0.6-0.9,1.1c-0.2,0.5-0.2,1.1-0.2,2v5H140z M162.2,111.6l1.7,0.2
			c-0.3,1-0.8,1.8-1.5,2.3c-0.7,0.5-1.6,0.8-2.8,0.8c-1.4,0-2.5-0.4-3.4-1.3c-0.8-0.9-1.2-2.1-1.2-3.7c0-1.6,0.4-2.9,1.2-3.8
			c0.8-0.9,1.9-1.3,3.3-1.3c1.3,0,2.3,0.4,3.2,1.3c0.8,0.9,1.2,2.1,1.2,3.7c0,0.1,0,0.2,0,0.4h-7.2c0.1,1.1,0.4,1.9,0.9,2.5
			c0.5,0.6,1.2,0.8,2,0.8c0.6,0,1.1-0.2,1.5-0.5C161.6,112.8,161.9,112.3,162.2,111.6z M156.8,108.9h5.4c-0.1-0.8-0.3-1.4-0.6-1.8
			c-0.5-0.6-1.2-1-2-1c-0.8,0-1.4,0.3-1.9,0.8C157.1,107.4,156.8,108.1,156.8,108.9z M165.9,114.7V105h1.5v1.4
			c0.7-1.1,1.7-1.6,3.1-1.6c0.6,0,1.1,0.1,1.6,0.3c0.5,0.2,0.9,0.5,1.1,0.8c0.2,0.3,0.4,0.7,0.5,1.2c0.1,0.3,0.1,0.8,0.1,1.6v6h-1.6
			v-5.9c0-0.7-0.1-1.2-0.2-1.5c-0.1-0.3-0.3-0.6-0.7-0.8c-0.3-0.2-0.7-0.3-1.1-0.3c-0.7,0-1.3,0.2-1.8,0.7c-0.5,0.4-0.8,1.3-0.8,2.5
			v5.3H165.9z M179.9,113.2l0.2,1.5c-0.5,0.1-0.9,0.1-1.2,0.1c-0.6,0-1.1-0.1-1.4-0.3c-0.3-0.2-0.6-0.4-0.7-0.7
			c-0.1-0.3-0.2-1-0.2-1.9v-5.6h-1.2V105h1.2v-2.4l1.6-1v3.4h1.7v1.3h-1.7v5.7c0,0.5,0,0.8,0.1,0.9c0.1,0.1,0.2,0.2,0.3,0.3
			c0.1,0.1,0.3,0.1,0.6,0.1C179.3,113.3,179.6,113.3,179.9,113.2z M180.8,111.8l1.6-0.2c0.1,0.6,0.3,1.1,0.8,1.5
			c0.4,0.3,1,0.5,1.8,0.5s1.3-0.2,1.7-0.5c0.4-0.3,0.5-0.7,0.5-1.1c0-0.4-0.2-0.7-0.5-0.9c-0.2-0.1-0.8-0.3-1.7-0.5
			c-1.2-0.3-2-0.6-2.5-0.8c-0.5-0.2-0.8-0.5-1-0.9c-0.2-0.4-0.4-0.8-0.4-1.3c0-0.4,0.1-0.8,0.3-1.2c0.2-0.4,0.5-0.7,0.8-0.9
			c0.2-0.2,0.6-0.3,1-0.5c0.4-0.1,0.9-0.2,1.4-0.2c0.8,0,1.4,0.1,2,0.3c0.6,0.2,1,0.5,1.3,0.9c0.3,0.4,0.5,0.9,0.6,1.5l-1.6,0.2
			c-0.1-0.5-0.3-0.9-0.6-1.2c-0.3-0.3-0.8-0.4-1.5-0.4c-0.8,0-1.3,0.1-1.6,0.4c-0.3,0.2-0.5,0.5-0.5,0.9c0,0.2,0.1,0.4,0.2,0.6
			c0.1,0.2,0.3,0.3,0.6,0.4c0.2,0.1,0.6,0.2,1.4,0.4c1.2,0.3,2,0.6,2.4,0.8c0.5,0.2,0.8,0.5,1.1,0.9c0.3,0.4,0.4,0.8,0.4,1.4
			c0,0.6-0.2,1.1-0.5,1.5c-0.3,0.5-0.8,0.9-1.4,1.1c-0.6,0.3-1.3,0.4-2,0.4c-1.2,0-2.2-0.3-2.9-0.8
			C181.4,113.6,181,112.8,180.8,111.8z"/>
	</g>
</g>
</svg>
